<svg width="11" height="16" viewBox="0 0 11 16" fill="none" xmlns="http://www.w3.org/2000/svg">
<mask id="mask0_0_1014" style="mask-type:luminance" maskUnits="userSpaceOnUse" x="0" y="0" width="11" height="16">
<path d="M0.424072 -5.72205e-06L0.424072 15.094H10.6711L10.6711 -5.72205e-06H0.424072Z" fill="white"/>
</mask>
<g mask="url(#mask0_0_1014)">
<path d="M10.6721 7.80395V7.82395C10.6746 7.99839 10.6372 8.17109 10.5626 8.32883C10.4881 8.48656 10.3785 8.62514 10.2421 8.73395L1.75309 14.9429C1.65326 15.0133 1.53855 15.0597 1.41788 15.0784C1.29721 15.0972 1.17384 15.0879 1.05735 15.0513C0.940861 15.0146 0.834401 14.9515 0.74625 14.867C0.658098 14.7825 0.59063 14.6788 0.549093 14.5639C0.427496 14.3179 0.391662 14.0383 0.447292 13.7696C0.502922 13.5009 0.646819 13.2585 0.856093 13.0809L8.12509 7.76395L0.874093 1.99395C0.670004 1.80853 0.533538 1.56038 0.486269 1.28872C0.439001 1.01707 0.483627 0.737404 0.613093 0.493949C0.65917 0.381541 0.730708 0.281362 0.822075 0.201296C0.913443 0.12123 1.02215 0.0634632 1.13963 0.0325413C1.25711 0.00161934 1.38017 -0.00161362 1.49912 0.023098C1.61806 0.0478096 1.72965 0.0997906 1.82509 0.17495L10.2711 6.89395C10.4007 7.00683 10.5037 7.14692 10.5728 7.30423C10.642 7.46154 10.6765 7.63217 10.6721 7.80395Z" fill="black"/>
</g>
</svg>
