<svg width="16" height="11" viewBox="0 0 16 11" fill="none" xmlns="http://www.w3.org/2000/svg">
<mask id="mask0_0_1008" style="mask-type:luminance" maskUnits="userSpaceOnUse" x="0" y="0" width="16" height="11">
<path d="M15.094 0.376953H0V10.624H15.094V0.376953Z" fill="white"/>
</mask>
<g mask="url(#mask0_0_1008)">
<path d="M7.29004 10.625H7.27004C7.0956 10.6275 6.9229 10.5901 6.76517 10.5155C6.60743 10.441 6.46885 10.3313 6.36004 10.195L0.151044 1.70597C0.0807025 1.60614 0.0343365 1.49143 0.0155523 1.37076C-0.00323188 1.25009 0.00607209 1.12672 0.0427406 1.01023C0.0794091 0.893742 0.142454 0.787282 0.226972 0.69913C0.31149 0.610979 0.415202 0.543511 0.530044 0.501974C0.776058 0.380377 1.05567 0.344543 1.32439 0.400173C1.59312 0.455802 1.83553 0.5997 2.01304 0.808974L7.33004 8.07797L13.1 0.826974C13.2855 0.622884 13.5336 0.486419 13.8053 0.43915C14.0769 0.391882 14.3566 0.436508 14.6 0.565974C14.7125 0.612051 14.8126 0.683588 14.8927 0.774956C14.9728 0.866324 15.0305 0.975027 15.0615 1.09251C15.0924 1.20999 15.0956 1.33305 15.0709 1.452C15.0462 1.57094 14.9942 1.68253 14.919 1.77797L8.20004 10.224C8.08717 10.3535 7.94707 10.4566 7.78976 10.5257C7.63246 10.5949 7.46182 10.6294 7.29004 10.625Z" fill="black"/>
</g>
</svg>
