<svg width="94" height="94" viewBox="0 0 94 94" fill="none" xmlns="http://www.w3.org/2000/svg">
<mask id="mask0_0_972" style="mask-type:luminance" maskUnits="userSpaceOnUse" x="0" y="0" width="94" height="94">
<path d="M93.625 0.379883H0.375V93.6199H93.625V0.379883Z" fill="white"/>
</mask>
<g mask="url(#mask0_0_972)">
<path d="M0.375046 46.9999C0.359502 57.9993 4.24672 68.6475 11.345 77.0499C12.205 78.0699 13.115 79.0599 14.055 79.9999C15.5776 81.5257 17.2085 82.9393 18.935 84.2299C19.775 84.8699 20.645 85.4799 21.535 86.0599C21.6347 86.129 21.7382 86.1925 21.845 86.2499C23.1092 87.0746 24.4179 87.8291 25.765 88.5099C26.075 88.6699 26.385 88.8299 26.705 88.9799C28.1586 89.6823 29.6472 90.3098 31.165 90.8599C33.1998 91.5991 35.2852 92.1906 37.405 92.6299C40.5589 93.2903 43.7728 93.6221 46.995 93.6199C48.405 93.6199 49.805 93.5599 51.185 93.4299C52.614 93.3047 54.0358 93.1078 55.445 92.8399C56.225 92.6999 56.995 92.5399 57.755 92.3599C59.9542 91.8465 62.1106 91.1644 64.205 90.3199C66.0485 89.5913 67.8424 88.7428 69.575 87.7799C69.775 87.6699 69.975 87.5599 70.165 87.4399C71.3426 86.7848 72.4842 86.0671 73.585 85.2899C74.535 84.6399 75.465 83.9399 76.365 83.1999C76.475 83.1199 76.575 83.0399 76.685 82.9499C77.955 81.8899 79.1717 80.7699 80.335 79.5899C80.665 79.2599 80.985 78.9199 81.295 78.5799C82.185 77.6199 83.035 76.6199 83.835 75.5899C84.635 74.5599 85.375 73.5199 86.075 72.4399C90.0341 66.3581 92.5189 59.4363 93.3317 52.2251C94.1445 45.0139 93.2628 37.7126 90.7568 30.9022C88.2508 24.0918 84.1898 17.9603 78.8968 12.9958C73.6039 8.03136 67.2252 4.37089 60.2684 2.30577C53.3116 0.240656 45.9688 -0.172092 38.8244 1.10038C31.68 2.37285 24.9313 5.29541 19.1153 9.63545C13.2994 13.9755 8.57673 19.6132 5.32332 26.0999C2.06991 32.5865 0.375532 39.743 0.375046 46.9999Z" fill="#E8E1EF"/>
<path d="M34.6152 41.3019L55.7952 39.1619L56.7952 39.0619L59.4852 38.7919C59.4852 38.7919 61.3252 32.1219 59.6452 27.5519C57.9652 22.9819 54.0352 24.8519 54.0352 24.8519C52.5324 23.6797 50.8686 22.7299 49.0952 22.0319C47.9136 21.5466 46.6967 21.1521 45.4552 20.8519C43.8543 20.461 42.2206 20.22 40.5752 20.1319C32.0552 19.6619 34.8352 25.4619 34.8352 25.4619C34.8352 25.4619 32.9452 26.8019 32.1752 31.0119C31.8282 32.802 31.8663 34.6454 32.287 36.4197C32.7077 38.1939 33.5013 39.8582 34.6152 41.3019Z" fill="black"/>
<path d="M11.345 77.0499C12.205 78.0699 13.115 79.0599 14.055 79.9999C15.5775 81.5257 17.2085 82.9393 18.935 84.2299C19.775 84.8699 20.645 85.4799 21.535 86.0599C21.6346 86.129 21.7381 86.1925 21.845 86.2499L21.565 65.7499C17.9068 69.2812 14.4923 73.0565 11.345 77.0499Z" fill="#F7B369"/>
<path d="M25.7651 88.5099C26.0751 88.6699 26.3851 88.8299 26.7051 88.9799C30.108 90.6322 33.7019 91.8581 37.4051 92.6299C40.559 93.2903 43.7729 93.6221 46.9951 93.6199C48.4051 93.6199 49.8051 93.5599 51.1851 93.4299C52.6141 93.3047 54.0359 93.1078 55.4451 92.8399C56.2251 92.6999 56.9951 92.5399 57.7551 92.3599C59.9543 91.8465 62.1107 91.1644 64.2051 90.3199L54.4851 57.3599C54.4851 57.3599 46.7961 52.9999 39.0721 56.8649C34.4351 59.1849 28.2151 75.9199 25.7651 88.5099Z" fill="#0086D5"/>
<path d="M38.3149 57.1199L53.0949 58.0499C53.0949 58.0499 54.5749 73.4099 55.4449 92.8399C56.2249 92.6999 56.9949 92.5399 57.7549 92.3599C61.887 91.3846 65.8645 89.8433 69.5749 87.7799C69.7749 87.6699 69.9749 87.5599 70.1649 87.4399C71.3425 86.7848 72.4841 86.0671 73.5849 85.2899C74.5349 84.6399 75.4649 83.9399 76.3649 83.1999C76.4749 83.1199 76.5749 83.0399 76.6849 82.9499C77.9549 81.8899 79.1716 80.7699 80.3349 79.5899C80.6649 79.2599 80.9849 78.9199 81.2949 78.5799C81.0149 72.2299 80.1449 67.4999 78.3749 65.8499C70.5149 58.5399 51.0149 56.0999 51.0149 56.0999L41.8949 55.9699C41.8949 55.9699 40.4549 56.3899 38.3149 57.1199Z" fill="#F7B369"/>
<path d="M18.9351 84.2299C19.7751 84.8699 20.6451 85.4799 21.5351 86.0599C22.899 86.9538 24.3111 87.7717 25.7651 88.5099C26.0751 88.6699 26.3851 88.8299 26.7051 88.9799C28.1587 89.6823 29.6473 90.3098 31.1651 90.8599C31.164 90.7392 31.1741 90.6187 31.1951 90.4999C37.4421 68.0799 39.0721 56.8649 39.0721 56.8649C33.4421 58.7949 22.1951 63.1699 20.2721 67.5999C19.5421 69.2899 19.1321 75.7499 18.9321 84.2299" fill="#F7B369"/>
<path d="M47.88 25.4399C47.88 25.4399 56.58 6.00688 66.521 15.8799C74.834 24.1399 61.941 36.8679 54.486 33.2379C47.031 29.6079 47.88 25.4379 47.88 25.4379" fill="black"/>
<path d="M53.221 48.5799L52.815 58.9799C52.815 58.9799 50.823 61.8949 44.722 62.1519C40.178 62.3429 38.834 59.9599 38.834 59.9599L40.287 50.9059L51.363 48.9189L53.221 48.5799Z" fill="#F48462"/>
<path d="M53.2301 47.9449C53.1683 48.2909 53.0533 48.6252 52.8891 48.9359C50.3601 54.0359 42.0891 55.8789 39.4641 56.0109L40.2871 50.9009L53.2301 47.9449Z" fill="black"/>
<path d="M38.895 27.1149C38.895 27.1149 32.93 39.9359 34.795 47.2619C36.66 54.5879 43.32 53.5979 47.32 52.2849C49.5836 51.6045 51.6218 50.3263 53.22 48.5849C54.3422 48.9444 55.5494 48.9404 56.6692 48.5734C57.789 48.2063 58.7643 47.495 59.456 46.5409C62.016 43.1529 60.583 39.1599 58.488 38.2029C56.393 37.2459 53.841 38.7149 53.841 38.7149L55.902 34.9969C55.902 34.9969 48.056 15.6689 38.892 27.1179" fill="#F48462"/>
<path d="M53.8439 38.7119C53.8439 38.7119 48.2569 39.7589 44.4699 33.5039C40.6829 27.2489 41.0769 24.7089 41.0769 24.7089L37.1309 31.0559C37.1309 31.0559 36.3309 26.6049 38.1459 23.8009C39.9609 20.9969 41.7949 21.6089 41.7949 21.6089L54.0399 24.8499L57.1399 34.7419L53.8439 38.7119Z" fill="black"/>
<path d="M39.111 43.6799C39.1584 43.68 39.2055 43.6733 39.251 43.6599C39.3783 43.6227 39.4856 43.5366 39.5494 43.4203C39.6131 43.304 39.6281 43.1672 39.591 43.0399C38.905 40.6809 40.71 38.1719 40.728 38.1469C40.8062 38.0397 40.8387 37.9059 40.8182 37.7748C40.7978 37.6437 40.7261 37.5261 40.619 37.4479C40.5118 37.3696 40.378 37.3372 40.2469 37.3576C40.1158 37.378 39.9982 37.4497 39.92 37.5569C39.834 37.6759 37.809 40.4939 38.631 43.3199C38.6613 43.4237 38.7244 43.515 38.811 43.5799C38.8975 43.6448 39.0028 43.6799 39.111 43.6799Z" fill="black"/>
<path d="M54.3 44.8799C54.3667 44.8799 54.4328 44.8665 54.4942 44.8406C54.5557 44.8146 54.6114 44.7766 54.658 44.7289L58.24 41.0589C58.3328 40.9641 58.3842 40.8362 58.3828 40.7036C58.3814 40.5709 58.3273 40.4442 58.2325 40.3514C58.1855 40.3054 58.13 40.2691 58.069 40.2446C58.0081 40.2201 57.9429 40.2079 57.8772 40.2086C57.7445 40.21 57.6178 40.2641 57.525 40.3589L53.943 44.0289C53.8744 44.0992 53.8281 44.1882 53.8098 44.2848C53.7915 44.3813 53.802 44.4811 53.8401 44.5717C53.8782 44.6623 53.9421 44.7396 54.0239 44.7941C54.1057 44.8485 54.2017 44.8777 54.3 44.8779" fill="black"/>
<path d="M58.042 43.9479C58.1672 43.9475 58.2878 43.9002 58.3798 43.8152C58.4718 43.7303 58.5286 43.6139 58.5389 43.489C58.5492 43.3642 58.5123 43.2401 58.4355 43.1411C58.3586 43.0422 58.2475 42.9758 58.124 42.9549L55.696 42.5449C55.5655 42.525 55.4324 42.5567 55.3249 42.6332C55.2174 42.7098 55.1439 42.8251 55.12 42.9549C55.098 43.0856 55.1288 43.2198 55.2057 43.3278C55.2826 43.4358 55.3992 43.5089 55.53 43.5309L57.958 43.9409C57.9857 43.9457 58.0138 43.948 58.042 43.9479Z" fill="black"/>
<path d="M36.7639 33.0299C36.791 33.0299 36.8181 33.0279 36.8449 33.0239L39.1519 32.6559C39.2803 32.6321 39.3943 32.559 39.4696 32.4523C39.5448 32.3456 39.5753 32.2136 39.5545 32.0847C39.5337 31.9558 39.4634 31.8401 39.3584 31.7624C39.2535 31.6847 39.1223 31.6511 38.9929 31.6689L36.6869 32.0359C36.5626 32.0553 36.4501 32.121 36.372 32.2197C36.2939 32.3184 36.2559 32.443 36.2657 32.5685C36.2754 32.694 36.3321 32.8112 36.4245 32.8968C36.5168 32.9823 36.638 33.0298 36.7639 33.0299Z" fill="black"/>
<path d="M46.3081 34.6739C46.42 34.6739 46.5286 34.6364 46.6166 34.5675C46.7047 34.4985 46.7671 34.402 46.7938 34.2933C46.8205 34.1847 46.81 34.0703 46.7641 33.9683C46.7181 33.8664 46.6392 33.7828 46.5401 33.7309L42.7931 31.7679C42.7349 31.7374 42.6713 31.7187 42.6059 31.7128C42.5405 31.7069 42.4746 31.714 42.4119 31.7336C42.3492 31.7532 42.291 31.7849 42.2406 31.827C42.1902 31.8691 42.1486 31.9207 42.1181 31.9789C42.0876 32.0371 42.0689 32.1007 42.063 32.1661C42.0572 32.2315 42.0642 32.2974 42.0838 32.3601C42.1034 32.4228 42.1352 32.481 42.1772 32.5314C42.2193 32.5818 42.2709 32.6234 42.3291 32.6539L46.0761 34.6169C46.1477 34.6544 46.2273 34.6739 46.3081 34.6739Z" fill="black"/>
<path d="M36.691 38.3489C36.7968 38.3489 36.9 38.3153 36.9855 38.2529C37.071 38.1906 37.1346 38.1027 37.167 38.0019L37.918 35.6729C37.9432 35.5946 37.9488 35.5113 37.9341 35.4304C37.9195 35.3494 37.8851 35.2733 37.834 35.2089L37.128 34.3199C37.0455 34.2159 36.9251 34.149 36.7932 34.1338C36.6614 34.1186 36.5289 34.1564 36.425 34.2389C36.321 34.3214 36.2541 34.4418 36.2389 34.5736C36.2237 34.7054 36.2615 34.8379 36.344 34.9419L36.884 35.6219L36.216 37.6959C36.1754 37.822 36.1864 37.9591 36.2468 38.077C36.3072 38.1949 36.4119 38.2841 36.538 38.3249C36.5874 38.3406 36.639 38.3487 36.691 38.3489Z" fill="black"/>
<path d="M44.134 39.0679C44.2399 39.0679 44.343 39.0343 44.4285 38.9719C44.5141 38.9096 44.5776 38.8217 44.61 38.7209L45.361 36.3929C45.3868 36.3127 45.3918 36.2273 45.3757 36.1446C45.3597 36.0619 45.3229 35.9846 45.269 35.9199L44.293 34.7479C44.2525 34.6931 44.2013 34.6472 44.1424 34.6129C44.0836 34.5786 44.0183 34.5568 43.9507 34.5486C43.8831 34.5405 43.8145 34.5462 43.7492 34.5655C43.6838 34.5848 43.6232 34.6173 43.5708 34.6609C43.5185 34.7045 43.4756 34.7583 43.4448 34.8191C43.4141 34.8798 43.396 34.9462 43.3918 35.0142C43.3876 35.0822 43.3974 35.1503 43.4204 35.2144C43.4435 35.2785 43.4794 35.3372 43.526 35.3869L44.326 36.3479L43.659 38.4149C43.6184 38.5411 43.6297 38.6783 43.6902 38.7963C43.7508 38.9142 43.8558 39.0033 43.982 39.0439C44.0315 39.0596 44.0821 39.0677 44.134 39.0679Z" fill="black"/>
<path d="M40.938 47.1159C42.584 47.1159 44.388 45.3759 44.626 45.1389C44.7201 45.0452 44.773 44.9181 44.7733 44.7854C44.7736 44.6527 44.7212 44.5254 44.6275 44.4314C44.5339 44.3373 44.4068 44.2844 44.2741 44.2841C44.1414 44.2838 44.0141 44.3362 43.92 44.4299C43.333 45.0139 41.442 46.5549 40.45 45.9959C40.3345 45.9306 40.1978 45.9139 40.07 45.9495C39.9422 45.985 39.8338 46.0699 39.7685 46.1854C39.7033 46.3009 39.6866 46.4376 39.7221 46.5654C39.7577 46.6932 39.8425 46.8016 39.958 46.8669C40.2573 47.0342 40.5952 47.1201 40.938 47.1159Z" fill="black"/>
<path d="M73.585 85.2899C74.535 84.6399 75.465 83.9399 76.365 83.1999C76.475 83.1199 76.575 83.0399 76.685 82.9499C77.955 81.8899 79.1716 80.7699 80.335 79.5899C81.5754 78.3229 82.7439 76.9875 83.835 75.5899C84.625 74.5699 85.375 73.5199 86.075 72.4399C82.5339 69 78.6919 65.8843 74.595 63.1299L73.585 85.2899Z" fill="#F7B369"/>
<path d="M44.036 62.6549C47.3686 62.55 50.6 61.485 53.342 59.5879C53.3949 59.549 53.4396 59.5001 53.4737 59.4439C53.5077 59.3878 53.5303 59.3254 53.5402 59.2605C53.5502 59.1956 53.5472 59.1294 53.5316 59.0656C53.5159 59.0019 53.4878 58.9418 53.449 58.8889C53.4101 58.8359 53.3612 58.7912 53.305 58.7572C53.2489 58.7232 53.1865 58.7005 53.1216 58.6906C53.0567 58.6807 52.9905 58.6836 52.9267 58.6993C52.863 58.7149 52.8029 58.743 52.75 58.7819C50.1729 60.5392 47.1529 61.5349 44.036 61.6549H43.917C39.531 61.6099 38.83 59.1659 38.803 59.0619C38.768 58.9347 38.6848 58.8262 38.5711 58.7593C38.4574 58.6925 38.3221 58.6726 38.194 58.7039C38.0672 58.7367 37.9584 58.8179 37.8909 58.9301C37.8234 59.0423 37.8026 59.1765 37.833 59.3039C37.866 59.4379 38.705 62.6039 43.907 62.6529H44.036" fill="white"/>
</g>
</svg>
