<svg width="150" height="35" viewBox="0 0 150 35" fill="none" xmlns="http://www.w3.org/2000/svg">
<path d="M15.3429 13.0341C14.6291 13.3745 14.0074 13.8813 13.53 14.5118C13.0526 15.1423 12.7336 15.8783 12.5996 16.6577C12.4657 17.4371 12.5207 18.2373 12.7602 18.9911C12.9996 19.7448 13.4165 20.4301 13.9757 20.9893C14.5349 21.5485 15.2202 21.9654 15.9739 22.2048C16.7277 22.4443 17.5279 22.4993 18.3073 22.3654C19.0867 22.2314 19.8226 21.9123 20.4532 21.435C21.0837 20.9576 21.5905 20.3359 21.9309 19.6221" stroke="#0086D3" stroke-width="1.7" stroke-linecap="round" stroke-linejoin="round"/>
<path d="M20.994 7.38312C18.7072 6.58775 16.2182 6.59182 13.934 7.39469C11.6499 8.19755 9.70571 9.75169 8.4195 11.8029C7.13329 13.8542 6.58114 16.2812 6.85335 18.687C7.12556 21.0928 8.20602 23.335 9.91803 25.0471C11.63 26.7591 13.8723 27.8395 16.2781 28.1117C18.6839 28.384 21.1109 27.8318 23.1621 26.5456C25.2134 25.2594 26.7675 23.3152 27.5704 21.0311C28.3733 18.7469 28.3773 16.2579 27.582 13.9711" stroke="#0086D3" stroke-width="1.7" stroke-linecap="round" stroke-linejoin="round"/>
<path d="M25.349 3.02807C21.8726 1.13579 17.8308 0.559431 13.9641 1.40459C10.0974 2.24974 6.66472 4.45982 4.29488 7.62991C1.92503 10.8 0.776756 14.7178 1.06042 18.6657C1.34408 22.6135 3.04068 26.3269 5.8394 29.1256C8.63812 31.9243 12.3516 33.6209 16.2994 33.9046C20.2472 34.1883 24.165 33.04 27.3351 30.6701C30.5052 28.3003 32.7153 24.8676 33.5604 21.0009C34.4056 17.1342 33.8292 13.0924 31.937 9.61607" stroke="#0086D3" stroke-width="1.7" stroke-linecap="round" stroke-linejoin="round"/>
<path d="M33.94 1.02502L17.47 17.495" stroke="#0086D3" stroke-width="1.7" stroke-linecap="round" stroke-linejoin="round"/>
<path d="M62.977 4.12601V7.95601H55.493V28.475H51.031V7.95601H43.547V4.12601H62.977ZM71.201 25.489C72.2011 25.5133 73.2012 25.4426 74.188 25.278V20.57C73.8531 20.4784 73.5128 20.4079 73.169 20.359C72.6805 20.2857 72.187 20.2506 71.693 20.254C71.2108 20.2548 70.7292 20.2899 70.252 20.359C69.8022 20.4236 69.3642 20.5536 68.952 20.745C68.5812 20.9287 68.2658 21.2075 68.038 21.553C67.7904 21.9271 67.6675 22.3699 67.687 22.818C67.6443 23.2219 67.7097 23.63 67.8764 24.0004C68.0431 24.3707 68.3053 24.6902 68.636 24.926C69.4259 25.338 70.3112 25.5323 71.201 25.489ZM70.85 9.64301C72.0546 9.61175 73.2555 9.79007 74.399 10.17C75.2721 10.4633 76.0579 10.9704 76.685 11.645C77.2839 12.302 77.707 13.0997 77.915 13.964C78.1819 14.9246 78.3119 15.9181 78.301 16.915V28.054C77.645 28.1947 76.6493 28.3587 75.314 28.546C73.8373 28.7688 72.3453 28.8745 70.852 28.862C69.836 28.8712 68.8222 28.7652 67.83 28.546C66.9857 28.3654 66.1855 28.019 65.476 27.527C64.834 27.0471 64.3159 26.4207 63.965 25.7C63.5885 24.8243 63.4086 23.8767 63.438 22.924C63.4093 21.9976 63.6157 21.0791 64.038 20.254C64.4485 19.5394 65.0277 18.9362 65.725 18.497C66.4614 18.0147 67.2847 17.6804 68.149 17.513C69.1063 17.3001 70.0843 17.1941 71.065 17.197C71.5588 17.1986 72.0519 17.2337 72.541 17.302C73.0974 17.3558 73.6491 17.4497 74.192 17.583V16.883C74.1941 16.4091 74.135 15.9368 74.016 15.478C73.8902 15.0336 73.6628 14.6244 73.3518 14.2829C73.0408 13.9414 72.6547 13.6768 72.224 13.51C71.6495 13.305 71.0417 13.2097 70.432 13.229C69.526 13.2229 68.6211 13.2935 67.727 13.44C67.0474 13.5459 66.3782 13.7105 65.727 13.932L65.2 10.489C65.9701 10.2451 66.7568 10.0573 67.554 9.92701C68.642 9.7339 69.745 9.63885 70.85 9.64301ZM88.108 25.419C88.9462 25.4694 89.7855 25.3377 90.568 25.033C90.8187 24.8984 91.0251 24.6941 91.1623 24.4448C91.2994 24.1955 91.3615 23.9118 91.341 23.628C91.3396 23.3254 91.2616 23.0281 91.1142 22.7639C90.9668 22.4996 90.7548 22.2771 90.498 22.117C89.6561 21.5689 88.7469 21.132 87.793 20.817C87.0203 20.5357 86.306 20.243 85.65 19.939C85.0541 19.636 84.4993 19.2583 83.999 18.815C83.5284 18.3903 83.1464 17.8768 82.875 17.304C82.5985 16.5991 82.4659 15.846 82.485 15.089C82.4529 14.3263 82.6054 13.567 82.9296 12.8759C83.2537 12.1847 83.74 11.582 84.347 11.119C85.8161 10.0645 87.6014 9.54376 89.407 9.64301C90.4459 9.63896 91.4824 9.74488 92.499 9.95901C93.251 10.0859 93.9915 10.2738 94.713 10.521L93.94 13.964C93.3625 13.7185 92.7623 13.5303 92.148 13.402C91.3197 13.2029 90.4698 13.1085 89.618 13.121C88.8878 13.0901 88.1619 13.2475 87.51 13.578C87.2585 13.6959 87.0476 13.8855 86.9038 14.1231C86.76 14.3607 86.6898 14.6356 86.702 14.913C86.6971 15.1889 86.7449 15.4631 86.843 15.721C86.9811 15.9808 87.1726 16.2085 87.405 16.389C87.728 16.616 88.0688 16.8167 88.424 16.989C88.8453 17.1763 89.3607 17.3763 89.97 17.589C90.8487 17.907 91.7056 18.2825 92.535 18.713C93.1761 19.0199 93.7588 19.4361 94.257 19.943C94.714 20.3706 95.0632 20.9004 95.276 21.489C95.5014 22.1684 95.6083 22.8814 95.592 23.597C95.6334 24.3771 95.4743 25.1548 95.1298 25.8559C94.7853 26.557 94.2669 27.1582 93.624 27.602C91.9487 28.5917 90.0149 29.0557 88.073 28.934C86.7599 28.969 85.4482 28.827 84.173 28.512C83.4702 28.3421 82.778 28.131 82.1 27.88L82.838 24.331C83.572 24.6223 84.3231 24.8687 85.087 25.069C86.0749 25.3144 87.0902 25.432 88.108 25.419ZM103.815 17.267C104.354 16.705 104.928 16.1077 105.537 15.475L107.329 13.543C107.914 12.887 108.465 12.2663 108.98 11.681C109.519 11.0717 109.975 10.5447 110.35 10.1H115.374C114.203 11.412 112.961 12.7707 111.65 14.176C110.362 15.5813 109.062 16.9517 107.75 18.287C108.534 18.9528 109.274 19.67 109.963 20.434C110.736 21.254 111.485 22.1323 112.212 23.069C112.939 24.0057 113.618 24.9427 114.25 25.88C114.823 26.7182 115.35 27.586 115.831 28.48H110.912C110.491 27.754 109.999 26.9927 109.436 26.196C108.892 25.3925 108.305 24.6184 107.679 23.877C107.046 23.1277 106.402 22.425 105.747 21.769C105.151 21.1429 104.505 20.567 103.815 20.047V28.48H99.563V1.91301L103.814 1.21301L103.815 17.267ZM117.073 19.375C117.044 17.9271 117.281 16.4861 117.773 15.124C118.206 13.9965 118.864 12.9685 119.705 12.102C120.474 11.3002 121.41 10.6766 122.446 10.275C123.448 9.85919 124.523 9.64445 125.608 9.64301C126.704 9.58072 127.8 9.7592 128.819 10.1659C129.838 10.5726 130.756 11.1976 131.508 11.997C132.937 13.5663 133.651 15.9087 133.651 19.024C133.651 19.258 133.639 19.5273 133.616 19.832C133.616 20.1133 133.604 20.371 133.581 20.605H121.465C121.505 21.9119 122.061 23.1498 123.011 24.048C124.172 24.916 125.606 25.3399 127.052 25.243C127.996 25.2519 128.939 25.1577 129.863 24.962C130.559 24.8248 131.241 24.6239 131.901 24.362L132.463 27.84C132.144 27.9907 131.815 28.1196 131.479 28.226C131.017 28.3576 130.548 28.4631 130.074 28.542C129.517 28.6661 128.954 28.7599 128.387 28.823C127.769 28.8937 127.147 28.9287 126.525 28.928C125.088 28.9597 123.658 28.7223 122.309 28.228C121.189 27.7879 120.182 27.1048 119.358 26.228C118.579 25.3519 117.993 24.3225 117.636 23.206C117.251 21.966 117.061 20.6735 117.073 19.375ZM129.406 17.475C129.41 16.9153 129.327 16.3583 129.16 15.824C129.015 15.3199 128.763 14.8527 128.422 14.454C128.119 14.0566 127.72 13.7422 127.263 13.54C126.761 13.293 126.206 13.1725 125.647 13.189C125.05 13.1753 124.459 13.3078 123.925 13.575C123.443 13.8018 123.013 14.1248 122.66 14.524C122.326 14.9331 122.064 15.3965 121.887 15.894C121.701 16.4053 121.571 16.9355 121.501 17.475H129.406ZM148.636 13.926C148.152 13.7769 147.659 13.6596 147.16 13.575C146.455 13.4246 145.736 13.3538 145.016 13.364C144.509 13.3676 144.004 13.4148 143.505 13.505C143.137 13.5645 142.774 13.6466 142.416 13.751V28.475H138.165V10.975C139.162 10.621 140.184 10.3393 141.222 10.132C142.572 9.83936 143.951 9.69782 145.333 9.71001C145.662 9.71324 145.991 9.73662 146.317 9.78001C146.694 9.80392 147.07 9.85101 147.441 9.92101C147.808 9.96651 148.172 10.037 148.53 10.132C148.815 10.1855 149.096 10.256 149.373 10.343L148.636 13.926Z" fill="#303030"/>
</svg>
