<svg width="31" height="41" viewBox="0 0 31 41" fill="none" xmlns="http://www.w3.org/2000/svg">
<mask id="mask0_0_364" style="mask-type:luminance" maskUnits="userSpaceOnUse" x="0" y="0" width="31" height="41">
<path d="M30.676 0.0970459H0.324951V40.903H30.676V0.0970459Z" fill="white"/>
</mask>
<g mask="url(#mask0_0_364)">
<mask id="mask1_0_364" style="mask-type:luminance" maskUnits="userSpaceOnUse" x="0" y="0" width="31" height="41">
<path d="M30.676 0.0970459H0.324951V40.903H30.676V0.0970459Z" fill="white"/>
</mask>
<g mask="url(#mask1_0_364)">
<path d="M30.081 5.27599C29.717 17.0627 29.8274 28.8507 30.412 40.64C20.461 40.318 10.595 40.22 0.741024 40.482C0.531024 28.547 0.600024 16.798 0.597024 4.91699C10.18 4.91699 19.762 4.91699 30.081 5.27599Z" fill="white"/>
<path d="M30.412 40.904H30.403C19.609 40.554 9.909 40.504 0.747999 40.746C0.71296 40.748 0.677892 40.7425 0.64513 40.73C0.612368 40.7174 0.582664 40.6979 0.557999 40.673C0.532855 40.6489 0.512747 40.62 0.498842 40.5881C0.484938 40.5562 0.477513 40.5218 0.476999 40.487C0.310999 30.996 0.324999 21.448 0.324999 12.21C0.324999 9.78265 0.324999 7.35131 0.324999 4.91598C0.324436 4.88021 0.33115 4.84469 0.344735 4.81159C0.35832 4.77849 0.378491 4.7485 0.404023 4.72343C0.429555 4.69837 0.459916 4.67876 0.493261 4.66578C0.526607 4.65281 0.562241 4.64676 0.597999 4.64798C10.023 4.64798 19.768 4.64798 30.091 5.00698C30.1607 5.00959 30.2265 5.03965 30.2741 5.09061C30.3217 5.14157 30.3472 5.20929 30.345 5.27898C29.983 17.008 30.095 28.899 30.676 40.622C30.6778 40.6577 30.6722 40.6935 30.6598 40.727C30.6473 40.7606 30.6281 40.7912 30.6034 40.8171C30.5787 40.843 30.549 40.8636 30.5161 40.8777C30.4832 40.8918 30.4478 40.899 30.412 40.899M12.361 40.062C17.992 40.062 23.879 40.162 30.134 40.362C29.568 28.806 29.459 17.089 29.808 5.52598C19.688 5.17598 10.118 5.17498 0.859999 5.17598C0.859999 7.52331 0.859999 9.86665 0.859999 12.206C0.850999 21.353 0.841999 30.806 1.003 40.206C4.69 40.106 8.465 40.063 12.364 40.063" fill="black"/>
<path d="M27.2429 7.09301C26.7467 17.3525 26.8803 27.6328 27.6429 37.876C19.5639 37.74 11.5169 37.602 3.49095 37.908C3.40195 27.508 3.17495 17.308 2.99695 7.06201C11.3969 7.14501 19.4969 7.16201 27.2459 7.09301" fill="white"/>
<path d="M3.48803 38.171C3.41844 38.1708 3.35174 38.1431 3.30234 38.0941C3.25295 38.0451 3.22482 37.9786 3.22403 37.909C3.15803 30.245 3.01503 22.569 2.87703 15.146C2.82703 12.4527 2.77803 9.75903 2.73003 7.06503C2.72936 7.02977 2.73576 6.99474 2.74885 6.962C2.76195 6.92926 2.78147 6.89947 2.80626 6.8744C2.83105 6.84932 2.86062 6.82947 2.89321 6.81601C2.92581 6.80255 2.96077 6.79575 2.99603 6.79603C12.083 6.88603 20.014 6.89603 27.24 6.82703C27.2762 6.8267 27.312 6.83379 27.3453 6.84786C27.3786 6.86193 27.4086 6.88269 27.4335 6.90885C27.4585 6.935 27.4778 6.966 27.4902 6.99992C27.5027 7.03383 27.5081 7.06995 27.506 7.10603C27.0026 17.3544 27.1362 27.6242 27.906 37.856C27.9085 37.8925 27.9034 37.9292 27.891 37.9636C27.8787 37.998 27.8592 38.0295 27.834 38.056C27.8082 38.0828 27.7771 38.1039 27.7426 38.118C27.7082 38.1321 27.6712 38.1389 27.634 38.138H27.521C19.634 38.005 11.478 37.867 3.49603 38.172H3.48603M3.26303 7.32803C3.30836 9.9327 3.35569 12.5357 3.40503 15.137C3.54203 22.473 3.68303 30.057 3.75003 37.637C11.6 37.347 19.607 37.479 27.359 37.61C26.6112 27.5452 26.4776 17.4441 26.959 7.36303C19.877 7.42903 12.118 7.41803 3.25903 7.33203" fill="black"/>
<path d="M22.877 4.44303C21.892 4.39503 18.935 4.36403 17.934 4.34303C17.475 3.90803 17.984 1.74303 17.18 0.943033C16.7094 0.537412 16.1005 0.328943 15.48 0.361033C14.8582 0.310785 14.2401 0.494834 13.747 0.877033C12.898 1.69603 13.109 4.16203 12.93 4.33503C11.866 4.34903 8.74303 4.37103 7.67603 4.39703C7.67603 7.65003 8.97603 8.20503 12.1 8.30203C16.957 8.45403 19.952 8.43503 21.187 7.91903C21.8568 7.66165 22.4038 7.15958 22.7175 6.51431C23.0312 5.86904 23.0882 5.12873 22.877 4.44303ZM14.238 4.32303C14.238 3.63303 14.066 2.08403 15.52 2.08403C16.537 2.08403 16.32 4.16103 16.408 4.32403C15.6874 4.3187 14.964 4.3187 14.238 4.32403" fill="white"/>
<path d="M16.347 8.65003C15.128 8.65003 13.712 8.61803 12.096 8.56803C8.86002 8.46803 7.41602 7.84103 7.41602 4.39903C7.41599 4.33021 7.44284 4.2641 7.49085 4.21479C7.53885 4.16547 7.60422 4.13686 7.67302 4.13503C8.38802 4.11703 10.026 4.10103 11.342 4.08903L12.732 4.07503C12.746 3.94903 12.758 3.76003 12.768 3.59803C12.825 2.69103 12.911 1.32103 13.568 0.689032C14.1085 0.261089 14.7892 0.0500138 15.477 0.0970318C16.1686 0.0625736 16.8464 0.299371 17.366 0.757032C17.8314 1.42875 18.044 2.24356 17.966 3.05703C17.9576 3.40176 17.9929 3.74616 18.071 4.08203L19.12 4.09703C20.407 4.11603 22.169 4.14203 22.889 4.17703C22.9488 4.17998 23.0058 4.20317 23.0507 4.24278C23.0956 4.28239 23.1257 4.33607 23.136 4.39503C23.3591 5.13976 23.2931 5.94121 22.9513 6.63945C22.6095 7.3377 22.017 7.88139 21.292 8.16203C19.6811 8.59208 18.0108 8.75623 16.347 8.64803M7.94702 4.65503C8.00702 7.43203 9.07702 7.94403 12.113 8.03903C16.891 8.18803 19.892 8.17703 21.089 7.67603C21.6731 7.46238 22.1567 7.03866 22.4451 6.48762C22.7336 5.93658 22.8063 5.2978 22.649 4.69603C21.843 4.66603 20.281 4.64303 19.112 4.62503L17.928 4.60703C17.8623 4.60536 17.7996 4.57934 17.752 4.53403C17.476 4.27303 17.457 3.74503 17.433 3.07603C17.4959 2.39639 17.3414 1.71434 16.992 1.12803C16.5746 0.775176 16.0376 0.596176 15.492 0.628032C14.9363 0.576988 14.3813 0.733359 13.934 1.06703C13.4754 1.84063 13.2536 2.7317 13.296 3.63003C13.261 4.19103 13.247 4.40003 13.117 4.53003C13.0686 4.57664 13.0042 4.60309 12.937 4.60403L11.347 4.62103C10.174 4.63203 8.74702 4.64603 7.94702 4.66103M16.407 4.59203C15.699 4.58603 14.97 4.58603 14.241 4.59203C14.2061 4.59276 14.1714 4.58631 14.139 4.57306C14.1067 4.55982 14.0774 4.54006 14.053 4.51503C14.0033 4.46549 13.9752 4.39824 13.975 4.32803C13.975 4.26903 13.975 4.20203 13.975 4.12803C13.8802 3.45558 14.0493 2.77252 14.447 2.22203C14.5896 2.08521 14.7588 1.97911 14.944 1.91031C15.1293 1.84151 15.3267 1.81146 15.524 1.82203C16.566 1.82203 16.618 3.26503 16.643 3.95903C16.643 4.05903 16.651 4.18603 16.658 4.23103C16.6734 4.271 16.6789 4.31412 16.6739 4.35667C16.6689 4.39922 16.6537 4.43992 16.6295 4.47526C16.6053 4.5106 16.5728 4.53951 16.5349 4.55951C16.497 4.57951 16.4549 4.58998 16.412 4.59003M15.271 4.05503H16.116C16.116 4.02903 16.116 4.00203 16.116 3.97303C16.097 3.44503 16.057 2.34503 15.525 2.34503C15.398 2.33521 15.2703 2.35162 15.1499 2.39326C15.0294 2.43489 14.9189 2.50085 14.825 2.58703C14.5457 3.02181 14.4315 3.54226 14.503 4.05403H15.275" fill="black"/>
<path d="M7.76302 15.924H7.75802C7.70951 15.9229 7.66221 15.9086 7.6213 15.8825C7.58039 15.8564 7.54743 15.8195 7.52602 15.776C7.22738 15.1643 6.86468 14.5861 6.44402 14.051C6.42129 14.0239 6.40424 13.9925 6.39389 13.9586C6.38353 13.9248 6.38008 13.8893 6.38374 13.8541C6.3874 13.8189 6.39809 13.7848 6.41518 13.7538C6.43228 13.7228 6.45542 13.6956 6.48324 13.6738C6.51106 13.6519 6.54299 13.6359 6.57713 13.6266C6.61127 13.6173 6.64693 13.615 6.68198 13.6198C6.71703 13.6246 6.75077 13.6363 6.78118 13.6544C6.81159 13.6725 6.83806 13.6965 6.85902 13.725C7.19811 14.1564 7.50177 14.6146 7.76702 15.095L8.95402 12.886C8.98775 12.8254 9.04396 12.7805 9.11052 12.761C9.17708 12.7415 9.24863 12.749 9.30972 12.7818C9.3708 12.8147 9.41651 12.8702 9.43696 12.9365C9.45741 13.0028 9.45097 13.0744 9.41902 13.136L7.99602 15.785C7.9734 15.8271 7.93978 15.8622 7.89874 15.8867C7.85771 15.9112 7.8108 15.9241 7.76302 15.924Z" fill="black"/>
<path d="M7.76298 22.8831H7.75798C7.70947 22.882 7.66218 22.8676 7.62126 22.8415C7.58035 22.8154 7.54739 22.7786 7.52598 22.7351C7.22754 22.1238 6.86518 21.5459 6.44498 21.0111C6.40437 20.9558 6.38684 20.887 6.3961 20.819C6.40536 20.7511 6.44068 20.6894 6.49459 20.6471C6.54851 20.6047 6.61679 20.585 6.68498 20.5921C6.75317 20.5992 6.81593 20.6325 6.85998 20.6851C7.19915 21.1165 7.50281 21.5746 7.76798 22.0551L8.95498 19.8461C8.98871 19.7855 9.04492 19.7406 9.11148 19.7211C9.17804 19.7016 9.24959 19.7091 9.31068 19.7419C9.37176 19.7748 9.41747 19.8303 9.43792 19.8966C9.45837 19.9629 9.45193 20.0345 9.41998 20.0961L7.99698 22.7451C7.97436 22.7872 7.94074 22.8223 7.8997 22.8468C7.85867 22.8713 7.81176 22.8842 7.76398 22.8841" fill="black"/>
<path d="M7.242 29.8421H7.237C7.18849 29.841 7.1412 29.8266 7.10028 29.8005C7.05937 29.7744 7.02641 29.7376 7.005 29.6941C6.70655 29.0825 6.34419 28.5043 5.924 27.9691C5.90127 27.942 5.88422 27.9106 5.87387 27.8767C5.86351 27.8429 5.86006 27.8073 5.86372 27.7722C5.86738 27.737 5.87807 27.7029 5.89516 27.6719C5.91226 27.6409 5.9354 27.6137 5.96322 27.5919C5.99104 27.57 6.02297 27.554 6.05711 27.5447C6.09125 27.5354 6.12691 27.5331 6.16196 27.5379C6.19701 27.5427 6.23075 27.5544 6.26116 27.5725C6.29157 27.5906 6.31804 27.6146 6.339 27.6431C6.67779 28.0745 6.98111 28.5327 7.246 29.0131L8.433 26.8041C8.46673 26.7435 8.52294 26.6986 8.5895 26.6791C8.65606 26.6596 8.72761 26.6671 8.78869 26.6999C8.84978 26.7328 8.89549 26.7883 8.91594 26.8546C8.93639 26.9209 8.92995 26.9925 8.898 27.0541L7.475 29.7031C7.45238 29.7452 7.41876 29.7803 7.37772 29.8048C7.33669 29.8293 7.28978 29.8422 7.242 29.8421Z" fill="black"/>
<path d="M14.021 16.0381C13.3336 16.0381 12.6476 16.0351 11.963 16.0291C11.893 16.0291 11.8258 16.0012 11.7763 15.9517C11.7268 15.9022 11.699 15.8351 11.699 15.7651C11.699 15.695 11.7268 15.6279 11.7763 15.5784C11.8258 15.5289 11.893 15.5011 11.963 15.5011C16.063 15.5381 20.214 15.4641 24.306 15.2821C24.3407 15.28 24.3755 15.285 24.4082 15.2967C24.441 15.3083 24.4711 15.3264 24.4967 15.3499C24.5224 15.3734 24.543 15.4018 24.5575 15.4335C24.572 15.4651 24.58 15.4993 24.581 15.5341C24.584 15.6039 24.5591 15.6721 24.5119 15.7237C24.4646 15.7752 24.3988 15.8059 24.329 15.8091C20.911 15.9611 17.451 16.0381 14.016 16.0381" fill="black"/>
<path d="M14.021 22.8631C13.3336 22.8631 12.6476 22.8601 11.963 22.8541C11.893 22.8541 11.8258 22.8262 11.7763 22.7767C11.7268 22.7272 11.699 22.6601 11.699 22.5901C11.699 22.52 11.7268 22.4529 11.7763 22.4034C11.8258 22.3539 11.893 22.3261 11.963 22.3261C16.063 22.3631 20.214 22.2891 24.306 22.1071C24.374 22.107 24.4394 22.1333 24.4886 22.1803C24.5377 22.2274 24.5668 22.2916 24.5698 22.3596C24.5727 22.4275 24.5493 22.494 24.5045 22.5451C24.4596 22.5963 24.3967 22.6281 24.329 22.6341C20.911 22.7861 17.451 22.8631 14.016 22.8631" fill="black"/>
<path d="M14.204 29.689C13.5166 29.689 12.8306 29.6861 12.146 29.6801C12.0759 29.6801 12.0088 29.6522 11.9593 29.6027C11.9098 29.5532 11.882 29.4861 11.882 29.4161C11.882 29.346 11.9098 29.2789 11.9593 29.2294C12.0088 29.1799 12.0759 29.1521 12.146 29.1521C16.246 29.1891 20.397 29.1151 24.49 28.9331H24.502C24.572 28.9315 24.6398 28.9577 24.6904 29.0061C24.741 29.0545 24.7704 29.121 24.772 29.191C24.7735 29.2611 24.7473 29.3289 24.6989 29.3795C24.6505 29.4301 24.584 29.4595 24.514 29.4611C21.096 29.6131 17.636 29.69 14.2 29.69" fill="black"/>
<g opacity="0.129">
<mask id="mask2_0_364" style="mask-type:luminance" maskUnits="userSpaceOnUse" x="8" y="5" width="16" height="5">
<path d="M23.452 5.62097H8.59204V9.64697H23.452V5.62097Z" fill="white"/>
</mask>
<g mask="url(#mask2_0_364)">
<path d="M23.4451 5.99994C23.4356 5.91492 23.4006 5.83476 23.3448 5.76997C23.2889 5.70519 23.2148 5.65881 23.1321 5.63694C22.7811 5.54794 22.5751 5.84294 22.5471 6.15694C22.5411 6.23594 22.4331 6.53594 22.4471 6.51694C22.4123 6.60364 22.3722 6.68813 22.3271 6.76994C22.3021 6.83994 22.1381 7.09494 22.0901 7.16994C22.0465 7.22121 21.999 7.26902 21.9481 7.31294C21.7808 7.44004 21.6039 7.55404 21.4191 7.65394C21.1571 7.74694 20.8781 7.78094 20.6191 7.86794C20.3907 7.95509 20.1569 8.02724 19.9191 8.08394C19.5771 8.09794 19.2391 8.15594 18.9001 8.19194C18.4763 8.23607 18.05 8.25277 17.6241 8.24194C16.7131 8.24194 15.8021 8.34694 14.8891 8.34194C13.9391 8.29294 12.9891 8.23194 12.0401 8.17994C11.3215 8.17657 10.6096 8.04098 9.94007 7.77994C10.0091 7.80794 10.0631 7.83594 9.95507 7.78694L9.93307 7.77694L9.90407 7.76594L9.93107 7.77594C9.69397 7.63634 9.44252 7.52269 9.18107 7.43694C9.06417 7.42318 8.94608 7.4498 8.84639 7.51238C8.74669 7.57497 8.67139 7.66975 8.63298 7.78102C8.59457 7.89228 8.59536 8.01334 8.63521 8.12409C8.67506 8.23485 8.75158 8.32865 8.85207 8.38994C9.60769 8.8758 10.4416 9.22731 11.3171 9.42894C12.134 9.53706 12.957 9.59251 13.7811 9.59494C14.4423 9.64342 15.1058 9.65177 15.7681 9.61994C16.4214 9.61769 17.0738 9.57192 17.7211 9.48294C17.9211 9.47194 19.1071 9.32094 19.2211 9.28294C19.6248 9.24061 20.0255 9.17382 20.4211 9.08294C20.9121 8.90994 21.4151 8.76694 21.9011 8.58294C22.1157 8.46742 22.3169 8.32858 22.5011 8.16894L22.4011 8.24894C22.6341 8.08433 22.8255 7.86757 22.9601 7.61594C23.1662 7.22496 23.3173 6.80733 23.4091 6.37494C23.4472 6.24964 23.4641 6.11883 23.4591 5.98794" fill="black"/>
</g>
</g>
<g opacity="0.129">
<mask id="mask3_0_364" style="mask-type:luminance" maskUnits="userSpaceOnUse" x="3" y="7" width="26" height="32">
<path d="M28.456 7.22498H3.17297V38.939H28.456V7.22498Z" fill="white"/>
</mask>
<g mask="url(#mask3_0_364)">
<path d="M28.2629 31.526C28.1839 30.464 28.2089 29.397 28.1179 28.335C28.0179 26.785 27.8499 25.235 27.7859 23.685C27.8059 22.835 27.6229 21.999 27.6299 21.148C27.5899 19.848 27.6859 18.548 27.7229 17.255C27.7479 15.475 27.6959 13.693 27.8579 11.918C27.8486 10.9177 27.9004 9.91789 28.0129 8.92397C28.0359 8.58397 28.0229 8.24297 28.0479 7.90397C28.0479 7.86997 28.0479 7.83697 28.0539 7.80397C28.0633 7.75306 28.0633 7.70088 28.0539 7.64997C28.0432 7.55324 28.0035 7.46201 27.9399 7.38829C27.8764 7.31458 27.792 7.26182 27.6979 7.23697C26.7649 7.07497 27.0529 8.56297 26.9219 9.23097C26.7679 10.209 26.8319 11.198 26.7709 12.182C26.6099 14.016 26.7709 15.859 26.7379 17.696C26.7289 18.972 26.6779 20.248 26.6809 21.524C26.6899 22.158 26.8079 22.783 26.8149 23.416C26.8369 24.686 26.9389 25.952 26.9719 27.222C27.0733 28.9033 27.1246 30.5866 27.1259 32.272C27.2209 33.82 27.2879 35.372 27.2479 36.921C27.25 37.1622 27.2108 37.402 27.1319 37.63C26.5745 37.5689 26.0132 37.5502 25.4529 37.574C24.0369 37.574 22.6219 37.543 21.2059 37.562C20.1569 37.577 19.1059 37.673 18.0609 37.682C16.4739 37.69 14.8859 37.697 13.2989 37.668C12.6442 37.6115 11.9865 37.5968 11.3299 37.624C9.77694 37.708 8.21894 37.632 6.66594 37.587C5.92139 37.5244 5.17307 37.5207 4.42794 37.576C4.2556 37.5742 4.08408 37.552 3.91694 37.51C3.7655 37.4682 3.60367 37.4883 3.46705 37.5658C3.33043 37.6434 3.23021 37.772 3.18844 37.9235C3.14667 38.0749 3.16677 38.2367 3.24431 38.3734C3.32186 38.51 3.4505 38.6102 3.60194 38.652C4.60699 38.7818 5.61864 38.8543 6.63194 38.869C7.95594 38.9203 9.28094 38.9433 10.6069 38.938C11.4969 38.896 12.3859 38.878 13.2769 38.913C16.1159 38.964 18.9549 38.936 21.7889 38.763C23.3889 38.663 24.9889 38.777 26.5839 38.687C26.9489 38.66 27.3159 38.743 27.6779 38.687C27.7816 38.6579 27.8746 38.5993 27.9456 38.5183C28.0166 38.4374 28.0626 38.3376 28.0779 38.231C28.1283 38.17 28.1645 38.0986 28.1839 38.022C28.366 37.2715 28.4524 36.5011 28.4409 35.729C28.458 34.3268 28.3982 32.9247 28.2619 31.529" fill="black"/>
</g>
</g>
</g>
</g>
</svg>
