<svg width="101" height="104" viewBox="0 0 101 104" fill="none" xmlns="http://www.w3.org/2000/svg">
<mask id="mask0_0_1184" style="mask-type:luminance" maskUnits="userSpaceOnUse" x="0" y="0" width="101" height="104">
<path d="M100.421 72.8869L67.9651 0L0.25323 30.1518L32.7094 103.039L100.421 72.8869Z" fill="white"/>
</mask>
<g mask="url(#mask0_0_1184)">
<path d="M100.002 71.9455L28.5717 17.5417C28.4931 19.6576 28.3465 20.8335 28.4175 21.999C28.9493 30.7957 29.6341 39.5845 29.9904 48.3881C29.9826 50.2657 29.3763 52.0919 28.2594 53.6012C25.3734 57.4503 22.1111 61.0102 19.038 64.717C18.3496 65.547 17.831 66.5172 17.0031 67.7719L27.9765 71.0166L26.4592 86.7078L99.6992 73.2085L100.002 71.9455ZM28.8918 84.0442L32.2445 52.5276L92.9711 71.6932L92.9429 72.2446C71.7697 76.1453 50.5993 80.0447 28.8918 84.0442ZM91.5193 68.2753L91.2304 68.7752C87.4505 67.5852 83.6713 66.3949 79.8927 65.2043C65.0935 60.5499 50.2896 55.9071 35.481 51.2759C33.2707 50.592 32.0731 49.7202 32.1193 47.1061C32.1877 43.3244 31.7355 39.5369 31.5013 35.7521C31.2288 31.3326 30.9531 26.9134 30.6408 21.8906L91.5199 68.2717M28.9402 56.3154L29.5507 56.555L28.2302 68.7087L20.526 66.4672L28.9402 56.3154Z" fill="white"/>
</g>
</svg>
