<?xml version="1.0" encoding="utf-8"?>
<!-- Generator: Adobe Illustrator 26.0.1, SVG Export Plug-In . SVG Version: 6.00 Build 0)  -->
<svg version="1.1" id="Layer_1" xmlns="http://www.w3.org/2000/svg" xmlns:xlink="http://www.w3.org/1999/xlink" x="0px" y="0px"
	 viewBox="0 0 1080 1080" style="enable-background:new 0 0 1080 1080;" xml:space="preserve">
<style type="text/css">
	.st0{fill:#ECECEC;}
	.st1{fill:#F5F5F5;}
	.st2{fill:#007CFF;}
	.st3{opacity:0.3;fill:#FFFFFF;}
	.st4{opacity:0.4;fill:#FFFFFF;}
	.st5{fill:#FFFFFF;}
	.st6{opacity:0.1;}
	.st7{opacity:0.8;}
	.st8{opacity:0.6;}
	.st9{fill:#1A2E35;}
	.st10{opacity:0.2;}
	.st11{opacity:0.7;fill:#FFFFFF;}
	.st12{opacity:0.5;fill:#FFFFFF;}
	.st13{opacity:0.2;fill:#FFFFFF;}
	.st14{fill:#CD5B51;}
	.st15{fill:#BA221F;}
	.st16{opacity:0.4;}
	.st17{opacity:0.6;fill:#FAFAFA;}
	.st18{opacity:0.6;fill:#FFFFFF;}
</style>
<rect x="734.67" y="885.03" class="st0" width="23.49" height="0.68"/>
<rect x="145.68" y="857.14" class="st0" width="17.11" height="0.68"/>
<ellipse id="_x3C_Path_x3E__359_" class="st1" cx="538.69" cy="924.17" rx="523.91" ry="30.6"/>
<g>
	<path class="st2" d="M845.25,194.95h-87.98l-62.23,711.34h87.98c25.02,0,47.16-20.36,49.35-45.38l54.29-620.58
		C888.85,215.31,870.27,194.95,845.25,194.95z"/>
	<path class="st2" d="M827.3,194.95H529.52c-25.02,0-47.16,20.36-49.35,45.38l-54.29,620.58c-2.19,25.02,16.39,45.38,41.41,45.38
		h297.77c25.02,0,47.16-20.36,49.35-45.38l54.29-620.58C870.89,215.31,852.32,194.95,827.3,194.95z"/>
	<path class="st3" d="M827.3,194.95H529.52c-25.02,0-47.16,20.36-49.35,45.38l-54.29,620.58c-2.19,25.02,16.39,45.38,41.41,45.38
		h297.77c25.02,0,47.16-20.36,49.35-45.38l54.29-620.58C870.89,215.31,852.32,194.95,827.3,194.95z"/>
	<path class="st4" d="M826.03,209.49h-78.51c-4.63,0-8.98,3.04-10.7,7.48l0,0c-6.35,16.4-22.42,27.64-39.54,27.64h-46.42
		c-17.12,0-31.23-11.23-34.71-27.64v0c-0.94-4.44-4.76-7.47-9.39-7.47h-78.51c-17.03,0-32.05,13.81-33.54,30.84l-54.29,620.58
		c-1.49,17.03,11.11,30.84,28.14,30.84h297.77c17.03,0,32.05-13.81,33.54-30.84l54.29-620.58
		C855.66,223.3,843.06,209.49,826.03,209.49z"/>
	<path class="st5" d="M751.85,546.59h-208.4c-6.18,0-10.75-5.01-10.21-11.19l1.04-11.92c0.54-6.18,5.99-11.19,12.17-11.19h208.4
		c6.18,0,10.75,5.01,10.21,11.19l-1.04,11.92C763.47,541.58,758.03,546.59,751.85,546.59z"/>
	<path class="st5" d="M747.35,598.04h-208.4c-6.18,0-10.75-5.01-10.21-11.19l1.04-11.92c0.54-6.18,5.99-11.19,12.17-11.19h208.4
		c6.18,0,10.75,5.01,10.21,11.19l-1.04,11.92C758.97,593.03,753.53,598.04,747.35,598.04z"/>
	<path class="st6" d="M688.53,221.12c-0.6,6.85-6.64,12.41-13.49,12.41c-6.85,0-11.92-5.55-11.32-12.41
		c0.6-6.85,6.64-12.41,13.49-12.41C684.06,208.71,689.13,214.27,688.53,221.12z"/>
	<path class="st6" d="M682.9,221.12c-0.33,3.74-3.63,6.78-7.37,6.78c-3.74,0-6.51-3.03-6.18-6.78c0.33-3.74,3.63-6.78,7.37-6.78
		C680.46,214.34,683.23,217.37,682.9,221.12z"/>
	<g>
		<g class="st7">
			<path class="st5" d="M789.37,241.81L789.37,241.81c-2.01,0-3.49-1.63-3.32-3.64l0.58-6.64c0.18-2.01,1.95-3.64,3.95-3.64l0,0
				c2.01,0,3.49,1.63,3.32,3.64l-0.58,6.64C793.15,240.18,791.38,241.81,789.37,241.81z"/>
			<path class="st5" d="M818.45,241.81L818.45,241.81c-2.01,0-3.49-1.63-3.32-3.64l1.36-15.59c0.18-2.01,1.95-3.64,3.95-3.64l0,0
				c2.01,0,3.49,1.63,3.32,3.64l-1.36,15.59C822.23,240.18,820.46,241.81,818.45,241.81z"/>
			<path class="st5" d="M803.91,241.81L803.91,241.81c-2.01,0-3.49-1.63-3.32-3.64l0.97-11.12c0.18-2.01,1.95-3.64,3.95-3.64l0,0
				c2.01,0,3.49,1.63,3.32,3.64l-0.97,11.12C807.69,240.18,805.92,241.81,803.91,241.81z"/>
		</g>
		<g class="st7">
			<path class="st5" d="M540.41,241.81h-18.25c-1.14,0-1.98-0.92-1.88-2.06l0.86-9.8c0.1-1.14,1.1-2.06,2.24-2.06h18.25
				c1.14,0,1.98,0.92,1.88,2.06l-0.86,9.8C542.55,240.89,541.55,241.81,540.41,241.81z"/>
			<path class="st5" d="M548.87,239.15L548.87,239.15c-1.14,0-1.98-0.92-1.88-2.06l0.39-4.48c0.1-1.14,1.1-2.06,2.24-2.06l0,0
				c1.14,0,1.98,0.92,1.88,2.06l-0.39,4.48C551.01,238.23,550.01,239.15,548.87,239.15z"/>
		</g>
	</g>
	
		<ellipse transform="matrix(0.7224 -0.6915 0.6915 0.7224 -98.8963 569.4568)" class="st5" cx="659.78" cy="407.9" rx="91.14" ry="83.51"/>
	<g>
		<path class="st2" d="M660.08,404.51c-22.93,0-42.28,8.72-43.94,27.68l-1.84,21.04h83.03l1.84-21.04
			C700.83,413.23,683.01,404.51,660.08,404.51z"/>
		<path class="st2" d="M660.84,395.85c10.64,0,15.55-8.63,16.48-19.27c0.93-10.64-2.47-19.27-13.11-19.27
			c-10.64,0-15.55,8.63-16.48,19.27C646.8,387.22,650.19,395.85,660.84,395.85z"/>
	</g>
	<g>
		<path class="st2" d="M742.34,528.82c-5.66,0-10.44,2.15-10.85,6.84l-0.45,5.2h20.51l0.45-5.2
			C752.4,530.98,748,528.82,742.34,528.82z"/>
		<path class="st2" d="M742.52,526.68c2.63,0,3.84-2.13,4.07-4.76c0.23-2.63-0.61-4.76-3.24-4.76c-2.63,0-3.84,2.13-4.07,4.76
			C739.06,524.55,739.89,526.68,742.52,526.68z"/>
	</g>
	<path class="st2" d="M679.19,649.48H598.1c-9.47,0-16.48-7.68-15.65-17.15v0c0.83-9.47,9.18-17.15,18.65-17.15h81.09
		c9.47,0,16.48,7.68,15.65,17.15v0C697.01,641.81,688.66,649.48,679.19,649.48z"/>
	<path class="st2" d="M669.41,840.74h-86.79c-10.01,0-17.41-8.11-16.54-18.12l5.54-63.3c0.88-10.01,9.7-18.12,19.71-18.12h86.78
		c10.01,0,17.41,8.11,16.54,18.12l-5.54,63.3C688.24,832.63,679.42,840.74,669.41,840.74z"/>
	<g class="st8">
		<path class="st5" d="M642.64,775.31c0.53-6.02-3.93-10.91-9.95-10.91c-6.02,0-11.33,4.88-11.86,10.91
			c-0.31,3.59,1.16,6.74,3.66,8.73l-1.91,21.8c-0.31,3.58,2.33,6.48,5.91,6.48c3.58,0,6.73-2.9,7.04-6.48l1.91-21.8
			C640.3,782.05,642.33,778.9,642.64,775.31z"/>
	</g>
	<g>
		<path class="st2" d="M678.89,754.37H667.7l2.74-31.32c1.65-18.82-12.32-34.13-31.14-34.13c-18.82,0-35.47,15.31-37.12,34.13
			l-2.74,31.32h-11.18l2.74-31.32c2.19-24.99,24.29-45.31,49.28-45.31s43.54,20.33,41.35,45.31L678.89,754.37z"/>
	</g>
	<path class="st2" d="M743.71,576.79l0.26-3.01c0.27-3.07-2.01-5.57-5.08-5.57c-3.07,0-5.79,2.5-6.06,5.57l-0.26,3.01
		c-1.23,0-2.31,0.99-2.41,2.22l-0.7,7.99c-0.11,1.23,0.8,2.22,2.03,2.22h11.13c1.23,0,2.31-0.99,2.42-2.22l0.7-7.99
		C745.84,577.78,744.93,576.79,743.71,576.79z M738.77,569.58c2.31,0,4.03,1.88,3.83,4.19l-0.26,3.01h-8.39l0.26-3.01
		C734.41,571.47,736.46,569.58,738.77,569.58z"/>
	<g>
		<path class="st9" d="M576.11,579.98l-3.89-0.8c-0.46-0.1-0.7-0.58-0.51-1.03l1.62-3.83c0.35-0.82-0.65-1.43-1.28-0.78l-2.94,3.03
			c-0.35,0.36-0.91,0.36-1.19,0l-2.41-3.03c-0.52-0.65-1.62-0.04-1.42,0.78l0.95,3.83c0.11,0.45-0.21,0.94-0.69,1.03l-4.03,0.8
			c-0.86,0.17-0.97,1.39-0.14,1.56l3.89,0.8c0.46,0.09,0.7,0.58,0.51,1.03l-1.62,3.83c-0.35,0.82,0.65,1.43,1.28,0.78l2.94-3.03
			c0.35-0.36,0.91-0.36,1.19,0l2.41,3.03c0.52,0.65,1.62,0.04,1.42-0.78l-0.95-3.83c-0.11-0.45,0.21-0.94,0.69-1.03l4.03-0.8
			C576.84,581.37,576.95,580.16,576.11,579.98z"/>
		<path class="st9" d="M601.68,579.98l-3.89-0.8c-0.46-0.1-0.7-0.58-0.51-1.03l1.62-3.83c0.35-0.82-0.65-1.43-1.28-0.78l-2.94,3.03
			c-0.35,0.36-0.91,0.36-1.19,0l-2.41-3.03c-0.52-0.65-1.62-0.04-1.42,0.78l0.95,3.83c0.11,0.45-0.21,0.94-0.69,1.03l-4.03,0.8
			c-0.86,0.17-0.97,1.39-0.14,1.56l3.89,0.8c0.46,0.09,0.7,0.58,0.51,1.03l-1.62,3.83c-0.35,0.82,0.65,1.43,1.28,0.78l2.94-3.03
			c0.35-0.36,0.91-0.36,1.19,0l2.41,3.03c0.52,0.65,1.62,0.04,1.42-0.78l-0.95-3.83c-0.11-0.45,0.21-0.94,0.69-1.03l4.03-0.8
			C602.41,581.37,602.52,580.16,601.68,579.98z"/>
		<path class="st9" d="M627.25,579.98l-3.89-0.8c-0.46-0.1-0.7-0.58-0.51-1.03l1.62-3.83c0.35-0.82-0.65-1.43-1.28-0.78l-2.94,3.03
			c-0.35,0.36-0.91,0.36-1.19,0l-2.41-3.03c-0.52-0.65-1.62-0.04-1.42,0.78l0.95,3.83c0.11,0.45-0.21,0.94-0.69,1.03l-4.03,0.8
			c-0.86,0.17-0.97,1.39-0.14,1.56l3.89,0.8c0.46,0.09,0.7,0.58,0.51,1.03l-1.62,3.83c-0.35,0.82,0.65,1.43,1.28,0.78l2.94-3.03
			c0.35-0.36,0.91-0.36,1.19,0l2.41,3.03c0.52,0.65,1.62,0.04,1.42-0.78l-0.95-3.83c-0.11-0.45,0.21-0.94,0.69-1.03l4.03-0.8
			C627.98,581.37,628.09,580.16,627.25,579.98z"/>
		<path class="st9" d="M652.82,579.98l-3.89-0.8c-0.46-0.1-0.7-0.58-0.51-1.03l1.62-3.83c0.35-0.82-0.65-1.43-1.28-0.78l-2.94,3.03
			c-0.35,0.36-0.91,0.36-1.19,0l-2.41-3.03c-0.52-0.65-1.62-0.04-1.42,0.78l0.95,3.83c0.11,0.45-0.21,0.94-0.69,1.03l-4.03,0.8
			c-0.86,0.17-0.97,1.39-0.14,1.56l3.89,0.8c0.46,0.09,0.7,0.58,0.51,1.03l-1.62,3.83c-0.35,0.82,0.65,1.43,1.28,0.78l2.94-3.03
			c0.35-0.36,0.91-0.36,1.19,0l2.41,3.03c0.52,0.65,1.62,0.04,1.42-0.78l-0.95-3.83c-0.11-0.45,0.21-0.94,0.69-1.03l4.03-0.8
			C653.55,581.37,653.66,580.16,652.82,579.98z"/>
		<path class="st9" d="M678.39,579.98l-3.89-0.8c-0.46-0.1-0.7-0.58-0.51-1.03l1.62-3.83c0.35-0.82-0.65-1.43-1.28-0.78l-2.94,3.03
			c-0.35,0.36-0.91,0.36-1.19,0l-2.41-3.03c-0.52-0.65-1.62-0.04-1.42,0.78l0.95,3.83c0.11,0.45-0.21,0.94-0.69,1.03l-4.03,0.8
			c-0.86,0.17-0.97,1.39-0.14,1.56l3.89,0.8c0.46,0.09,0.7,0.58,0.51,1.03l-1.62,3.83c-0.35,0.82,0.65,1.43,1.28,0.78l2.94-3.03
			c0.35-0.36,0.91-0.36,1.19,0l2.41,3.03c0.52,0.65,1.62,0.04,1.42-0.78l-0.95-3.83c-0.11-0.45,0.21-0.94,0.69-1.03l4.03-0.8
			C679.12,581.37,679.23,580.16,678.39,579.98z"/>
		<path class="st9" d="M703.97,579.98l-3.89-0.8c-0.46-0.1-0.7-0.58-0.51-1.03l1.62-3.83c0.35-0.82-0.65-1.43-1.28-0.78l-2.94,3.03
			c-0.35,0.36-0.91,0.36-1.19,0l-2.41-3.03c-0.52-0.65-1.62-0.04-1.42,0.78l0.95,3.83c0.11,0.45-0.21,0.94-0.69,1.03l-4.03,0.8
			c-0.86,0.17-0.97,1.39-0.14,1.56l3.89,0.8c0.46,0.09,0.7,0.58,0.51,1.03l-1.62,3.83c-0.35,0.82,0.65,1.43,1.28,0.78l2.94-3.03
			c0.35-0.36,0.91-0.36,1.19,0l2.41,3.03c0.52,0.65,1.62,0.04,1.42-0.78l-0.95-3.83c-0.11-0.45,0.21-0.94,0.69-1.03l4.03-0.8
			C704.69,581.37,704.8,580.16,703.97,579.98z"/>
	</g>
	<g>
		<path class="st9" d="M642.33,524.04h-48.01c-2.98,0-5.61,2.42-5.87,5.4c-0.26,2.98,1.95,5.4,4.93,5.4h48.01
			c2.98,0,5.61-2.42,5.87-5.4C647.52,526.45,645.31,524.04,642.33,524.04z"/>
		<path class="st9" d="M691.07,524.04h-27.86c-2.98,0-5.61,2.42-5.87,5.4c-0.26,2.98,1.95,5.4,4.93,5.4h27.86
			c2.98,0,5.61-2.42,5.87-5.4C696.26,526.45,694.05,524.04,691.07,524.04z"/>
	</g>
	<path class="st9" d="M727.85,768.99c-18.1,7.23-33.97,17.77-44.83,29.76c-6.37-5.42-15.42-9.18-26.28-10.91l-1.27-0.2l-0.56,6.38
		l0.71,0.27c10.71,4.05,19.43,11.23,25.22,20.77l0.91,1.5l1-1.61c11.13-17.82,27.37-32.76,45.71-42.04l0.62-0.32l0.37-4.24
		L727.85,768.99z"/>
</g>
<path class="st10" d="M486.39,236.97c-3.37,5.94-5.6,12.56-6.22,19.58L439.94,716.5h124.51l25.02-95.91l-8.23-95.91l25.02-95.91
	l-8.23-95.91l25.02-95.91H486.39z"/>
<g>
	<g>
		<polygon class="st2" points="587.2,305.85 612.21,209.94 297.35,209.94 272.34,305.85 280.57,401.76 255.55,497.67 263.79,593.58 
			238.77,689.48 553.64,689.48 578.65,593.58 570.42,497.67 595.43,401.76 		"/>
		<polygon class="st11" points="587.2,305.85 612.21,209.94 297.35,209.94 272.34,305.85 280.57,401.76 255.55,497.67 
			263.79,593.58 238.77,689.48 553.64,689.48 578.65,593.58 570.42,497.67 595.43,401.76 		"/>
		<polygon class="st12" points="587.2,305.85 272.34,305.85 297.35,209.94 612.21,209.94 		"/>
		<polygon class="st12" points="570.42,497.67 255.55,497.67 280.57,401.76 595.43,401.76 		"/>
		<polygon class="st12" points="553.64,689.48 238.77,689.48 263.79,593.58 578.65,593.58 		"/>
	</g>
	<path class="st10" d="M545.07,345.93c-2.7,0.85-6.17,1.35-9.94,1.35c-5.56,0-10.44-1.1-13.22-2.76c-0.76-0.46-1.6-0.68-2.44-0.68
		l0,0c-0.78,0-1.55,0.22-2.27,0.61c-0.05,0.03-0.11,0.04-0.17,0.07h0l0,0c-0.03,0.02-0.07,0.03-0.1,0.05
		c-1.03,0.6-2.33,1.13-3.84,1.55c-2.6,0.73-5.81,1.16-9.28,1.16c-0.94,0-1.87-0.03-2.77-0.09c-2.69-0.18-5.15-0.63-7.18-1.26
		c-0.35-0.11-0.71-0.18-1.06-0.2c-2.45-0.16-4.65,1.72-4.65,4.32v0v2.93H365.77c-9.47,0-17.15,7.68-17.15,17.15v17.28
		c0,9.47,7.68,17.15,17.15,17.15H505c0.31,0,0.61-0.03,0.91-0.05c1.5,1.24,3.07,2.48,4.72,3.74c1.98,1.5,4.07,3.03,6.26,4.61
		c1.52,1.1,3.62,1.1,5.14,0c17.51-12.7,28.75-21.45,28.75-45.52v-17.3C550.78,347.08,547.9,345.05,545.07,345.93z"/>
	<g>
		<path class="st2" d="M502.34,395.04H363.11c-9.47,0-17.15-7.68-17.15-17.15v-17.28c0-9.47,7.68-17.15,17.15-17.15h139.23
			c9.47,0,17.15,7.68,17.15,17.15v17.28C519.49,387.36,511.81,395.04,502.34,395.04z"/>
		<g>
			<g>
				<path class="st2" d="M532.46,337.76c-5.56,0-10.44-1.1-13.22-2.76c-1.53-0.91-3.35-0.91-4.88,0c-2.78,1.66-7.66,2.76-13.22,2.76
					c-3.78,0-7.24-0.51-9.94-1.35c-2.84-0.89-5.71,1.15-5.71,4.12v17.3c0,24.06,11.24,32.82,28.75,45.52c1.52,1.1,3.62,1.1,5.14,0
					c17.51-12.7,28.75-21.45,28.75-45.52v-17.3c0-2.97-2.88-5.01-5.71-4.12C539.7,337.26,536.24,337.76,532.46,337.76z"/>
				<path class="st3" d="M532.46,337.76c-5.56,0-10.44-1.1-13.22-2.76c-1.53-0.91-3.35-0.91-4.88,0c-2.78,1.66-7.66,2.76-13.22,2.76
					c-3.78,0-7.24-0.51-9.94-1.35c-2.84-0.89-5.71,1.15-5.71,4.12v17.3c0,24.06,11.24,32.82,28.75,45.52c1.52,1.1,3.62,1.1,5.14,0
					c17.51-12.7,28.75-21.45,28.75-45.52v-17.3c0-2.97-2.88-5.01-5.71-4.12C539.7,337.26,536.24,337.76,532.46,337.76z"/>
				<path class="st13" d="M514.37,335.01c-2.78,1.66-7.66,2.76-13.22,2.76c-3.78,0-7.24-0.51-9.94-1.35
					c-2.84-0.89-5.71,1.15-5.71,4.12v17.3c0,24.06,11.24,32.82,28.75,45.52c0.76,0.55,1.67,0.83,2.57,0.83v-69.86
					C515.97,334.32,515.13,334.55,514.37,335.01z"/>
			</g>
			<path class="st9" d="M541.9,353.11c-11.31,4.68-20.99,11.51-27.35,19.27c-4.43-3.51-10.51-5.95-17.64-7.06l-0.84-0.13v4.13
				l0.48,0.17c7.17,2.62,13.22,7.27,17.51,13.45l0.67,0.97l0.56-1.04c6.2-11.54,15.87-21.21,27.22-27.23l0.39-0.2v-2.74
				L541.9,353.11z"/>
		</g>
	</g>
	<g>
		<path class="st2" d="M606.66,236.91h-11.95c-6.62,0-11.53-5.37-10.95-12l1.05-11.95c0.58-6.62,6.42-12,13.04-12h11.95
			c6.62,0,11.53,5.37,10.95,12l-1.04,11.95C619.12,231.54,613.28,236.91,606.66,236.91z"/>
		<polygon class="st5" points="611.62,212.95 609.03,210.11 602.5,216.11 597.03,210.11 593.94,212.95 599.41,218.95 592.89,224.95 
			595.48,227.79 602.01,221.79 607.48,227.79 610.57,224.95 605.1,218.95 		"/>
	</g>
</g>
<g>
	<g>
		<path class="st14" d="M339.74,339.97c6.93,7.53,13.54,15.33,20.08,23.21c6.54,7.87,12.92,15.87,19.22,23.95
			c0.28,0.35,0.16,0.21,0.23,0.31c0.03,0.04,0.04,0.12,0.07,0.16c0.07,0.08,0.11,0.21,0.19,0.28c0.13,0.2,0.31,0.34,0.49,0.53
			c0.38,0.34,0.91,0.61,1.49,0.71c0.29,0.04,0.6,0.09,0.91,0.05c0.17,0.02,0.32-0.03,0.49-0.03c0.09,0,0.16-0.05,0.25-0.06
			c0.14-0.06,0.05,0.06,0.42-0.16l6.77-3.67c9.08-4.81,18.23-9.51,27.7-13.73l7.91,9.8c-7.63,7.02-15.57,15.79-23.58,22.22
			l-6.05,4.76c-0.15,0.14-0.8,0.57-1.21,0.84c-0.47,0.3-0.92,0.62-1.42,0.89c-0.98,0.54-1.97,1.08-3.02,1.5
			c-2.07,0.9-4.29,1.47-6.54,1.81c-4.5,0.67-9.19,0.22-13.55-1.35c-2.18-0.78-4.29-1.83-6.21-3.17c-0.98-0.64-1.88-1.39-2.78-2.14
			c-0.45-0.37-0.85-0.8-1.28-1.2l-1.08-1.09c-7.15-7.33-14.22-14.74-21.13-22.28c-6.92-7.54-13.75-15.15-20.28-23.03L339.74,339.97z
			"/>
		<path class="st14" d="M414.37,377.5l6.3-20.23l16.58,8.26c0,0-2.42,14.76-14.49,17.32L414.37,377.5z"/>
		<polygon class="st14" points="427.32,351.66 442.27,355.77 437.25,365.53 420.67,357.26 		"/>
	</g>
	<g>
		<path class="st14" d="M252.52,345.48c-1.81,8.6-4.01,17.09-6.32,25.57c-2.3,8.48-4.81,16.9-7.42,25.3l-0.97,3.15l-0.49,1.58
			c-0.1,0.34-0.17,0.43-0.26,0.66c-0.3,0.8-0.48,1.66-0.51,2.57c-0.05,1.8,0.38,3.8,1.56,5.54c0.1,0.28,1.03,1.26,1.76,2.05
			l2.24,2.44l4.42,4.95c2.91,3.34,5.82,6.7,8.57,10.22l-9.42,10.9c-3.89-2.21-7.63-4.6-11.36-7l-5.54-3.66l-2.74-1.87
			c-0.93-0.65-1.68-1.08-3.17-2.32c-5.14-4.36-8.98-10.55-10.39-17.42c-0.72-3.43-0.89-7-0.49-10.54c0.11-0.85,0.27-1.84,0.39-2.57
			l0.29-1.62l0.57-3.25c1.51-8.67,3.13-17.31,4.96-25.9c1.81-8.59,3.74-17.16,6.06-25.63L252.52,345.48z"/>
		<path class="st14" d="M245.85,428.74l11.15-5.7l4.92,18.95c0,0-8.95,3.43-15.87-0.97L245.85,428.74z"/>
		<polygon class="st14" points="272.4,416.98 272.91,434.36 260.46,442.5 256.14,423.41 		"/>
	</g>
	<path class="st9" d="M308.86,256.14c0.27,1.34,1.2,2.28,2.08,2.1c0.88-0.18,1.36-1.41,1.09-2.75c-0.27-1.34-1.2-2.28-2.08-2.1
		C309.07,253.57,308.58,254.8,308.86,256.14z"/>
	<path class="st15" d="M309.94,258.44c0,0,4.62,7.11,8.73,10.15c-1.92,2.69-6.15,2.5-6.15,2.5L309.94,258.44z"/>
	<path class="st9" d="M302.44,249.7c-0.19,0-0.39-0.07-0.55-0.21c-0.33-0.3-0.35-0.81-0.04-1.13c3.01-3.26,6.67-2.68,6.83-2.66
		c0.44,0.07,0.73,0.49,0.66,0.93c-0.08,0.44-0.49,0.73-0.92,0.66l0,0c-0.12-0.02-2.98-0.44-5.38,2.16
		C302.87,249.61,302.66,249.7,302.44,249.7z"/>
	<path class="st14" d="M269.89,274.97c2.98,12.39,5.96,35.11-4.68,43.38c0,0,4.16,12.57,32.41,12.57c31.07,0,14.85-8.1,14.85-8.1
		c-16.96-3.3-16.52-18.03-13.57-27.66L269.89,274.97z"/>
	<path class="st9" d="M261.9,320.65c-1.85-3.44-3.89-7.39,0.33-8.62c4.64-1.36,34.45-3.88,43.2-1.33
		c-2.69,4.79,1.86,10.67,1.86,10.67L261.9,320.65z"/>
	<polygon class="st14" points="286.57,900.46 306.07,900.46 308.01,861.22 288.52,861.22 	"/>
	<polygon class="st14" points="162.86,895.06 182.61,896.1 194.61,857.45 174.86,856.4 	"/>
	<path class="st9" d="M182,894.54l-18.6-4.03c-0.68-0.15-1.36,0.2-1.65,0.83l-6.46,14.01c-0.67,1.45,0.22,3.16,1.79,3.47
		c6.52,1.29,9.76,1.6,17.94,3.37c5.03,1.09,16.39,3.86,23.35,5.36c6.8,1.47,9.35-5.17,6.64-6.41c-12.15-5.55-17.23-10.44-20.52-15
		C183.88,895.32,182.99,894.75,182,894.54z"/>
	<path class="st9" d="M305.04,898.5h-18.5c-0.69,0-1.29,0.48-1.44,1.16l-3.35,15.06c-0.35,1.56,0.84,3.04,2.44,3.01
		c6.67-0.11,16.32-0.5,24.71-0.5c9.81,0,18.28,0.53,29.78,0.53c6.96,0,8.89-7.03,5.97-7.67c-13.25-2.9-24.08-3.21-35.53-10.27
		C307.87,899.05,306.5,898.5,305.04,898.5z"/>
	<path class="st9" d="M229.91,324.08c-14.71,7-18.71,49.41-18.71,49.41l36.4,16.82c0,0,9.03-13.31,9.73-34.23
		C258.04,334.14,244.95,316.93,229.91,324.08z"/>
	<path class="st16" d="M249.65,350.23c-6.57,10.2-5.95,25.98-3.67,39.32l1.61,0.75c0,0,9.04-13.32,9.74-34.24
		c0.04-1.31,0.04-2.61-0.01-3.87L249.65,350.23z"/>
	<g>
		<path class="st2" d="M331.47,323.05c0,0,18.03,20.37,1,146.44c-27.3,0-77.33,0-90.62,0c-0.62-13.91,8.12-81.77-5.3-147.32
			c0,0,15.53-3.12,30.34-3.83c11.58-0.56,28.34-0.93,38.52,0C318.83,319.57,331.47,323.05,331.47,323.05z"/>
		<path class="st17" d="M331.47,323.05c0,0,18.03,20.37,1,146.44c-27.3,0-77.33,0-90.62,0c-0.62-13.91,8.12-81.77-5.3-147.32
			c0,0,15.53-3.12,30.34-3.83c11.58-0.56,28.34-0.93,38.52,0C318.83,319.57,331.47,323.05,331.47,323.05z"/>
	</g>
	<path class="st10" d="M339.4,361.58l-0.35-0.3l-18.02-9.63c-1.83,27.75,10.57,45.15,17.95,52.76
		C339.99,386.63,339.97,372.61,339.4,361.58z"/>
	<polygon class="st10" points="308.01,861.24 307.01,881.46 287.51,881.46 288.5,861.24 	"/>
	<polygon class="st10" points="174.85,856.41 194.61,857.46 188.41,877.38 168.66,876.34 	"/>
	<path class="st14" d="M263.61,262.38c4.35,16.24,6.08,25.97,16.1,32.72c15.08,10.16,33.85-1.5,34.43-18.71
		c0.53-15.5-6.68-39.45-24.11-42.73C272.87,230.43,259.26,246.13,263.61,262.38z"/>
	<path class="st9" d="M300.33,469.49c0,0-19.23,129.48-29.78,177.99c-11.56,53.12-73.54,228.87-73.54,228.87l-30.33-6.57
		c0,0,38.87-143.22,48.57-217.48c3.79-28.98,8.36-75.69,14.14-114.64c5.6-37.72,12.47-68.16,12.47-68.16H300.33z"/>
	<path class="st2" d="M204.27,866.22c0.13,0.03-5.65,10.97-5.65,10.97l-34.12-7.39l2.88-10.26L204.27,866.22z"/>
	<path class="st18" d="M204.27,866.22c0.13,0.03-5.65,10.97-5.65,10.97l-34.12-7.39l2.88-10.26L204.27,866.22z"/>
	<path class="st8" d="M288.18,515.63c-22.23,4.36-19.88,87.27-17.2,129.91c6.41-30.14,15.8-88.15,22.21-129.31
		C291.71,515.49,290.05,515.26,288.18,515.63z"/>
	<path class="st9" d="M332.48,469.49c0,0,9.04,126.68,7.2,178.34c-1.92,53.74-27.4,229.71-27.4,229.71h-28.7
		c0,0-1.05-172.82-2.33-225.6c-1.39-57.54-8.34-182.45-8.34-182.45H332.48z"/>
	<path class="st2" d="M317.8,866.11c0.13,0-1.62,11.92-1.62,11.92h-34.91l-0.94-10.63L317.8,866.11z"/>
	<path class="st18" d="M317.8,866.11c0.13,0-1.62,11.92-1.62,11.92h-34.91l-0.94-10.63L317.8,866.11z"/>
	<path class="st9" d="M320.9,346.78c0,34,18.09,47.99,18.09,47.99l29.4-28.75c0,0-10-17.23-23.75-33.04
		C327.66,313.45,320.9,324.92,320.9,346.78z"/>
	<path class="st10" d="M313.12,282.54c-0.75,2.08-2.71,5.61-7.62,7.02c-7.18,2.05-7.27,8.14-7.27,8.14l0.09,0.11
		C305.16,295.55,310.86,289.89,313.12,282.54z"/>
	<path class="st9" d="M305.49,230.09c6.06-7.64-3.26-8-3.26-8c2.42-9.12-8.48-4.21-8.48-4.21c-6.54-9.02-10.24,1.96-10.24,1.96
		c-6.79-7.64-8.04,4.85-8.04,4.85c-6.81-9.69-10.27,4.29-10.27,4.29c-6.27-10.07-10.11,3.05-10.11,3.05
		c-12.94-4.63-6.79,8.82-6.79,8.82c-11.05,0.31-2.19,8.86-2.19,8.86c-13.24,0.03-1.56,7.61-1.56,7.61
		c-10.51,6.9,2.68,8.75,2.68,8.75c-8.58,13.41,6.15,8.44,6.15,8.44c-5.97,13.27,7.26,7.43,7.26,7.43
		c-0.86,12.81,6.54,9.32,10.09,6.95c0.69,2.58,1.97,5.31,4.34,5.62c4.62,0.6,5.51-8.11,5.51-8.11s4.28,3.33,7.87,1.53
		c3.59-1.81,2.24-6.37,2.24-6.37s2.75,2.05,5.27,0.09c1.54-1.2,1.55-9.8-0.42-12.82l7.03-2.75c0,0,5.22-0.74,2.89-7.62
		c-2.33-6.88-0.35-12.31-0.35-12.31c7.94-3.72,1.43-8.19,1.43-8.19C315.75,231.98,305.49,230.09,305.49,230.09z"/>
	<path class="st14" d="M291.25,263.06c1.11,4.26,3.91,7.93,6.84,10.11c4.41,3.28,7.7,0.05,7.39-4.94
		c-0.28-4.49-2.92-11.61-7.78-12.94C292.9,253.98,289.98,258.18,291.25,263.06z"/>
</g>
</svg>
