<svg width="39" height="29" viewBox="0 0 39 29" fill="none" xmlns="http://www.w3.org/2000/svg">
<mask id="mask0_0_504" style="mask-type:luminance" maskUnits="userSpaceOnUse" x="0" y="0" width="39" height="29">
<path d="M38.9729 0.13501H0.0268555V28.865H38.9729V0.13501Z" fill="white"/>
</mask>
<g mask="url(#mask0_0_504)">
<mask id="mask1_0_504" style="mask-type:luminance" maskUnits="userSpaceOnUse" x="0" y="0" width="39" height="29">
<path d="M38.9729 0.13501H0.0268555V28.865H38.9729V0.13501Z" fill="white"/>
</mask>
<g mask="url(#mask1_0_504)">
<path d="M35.997 28.6211C35.0158 27.2886 33.7659 26.177 32.328 25.3581C30.422 24.4461 28.2 24.622 26.094 24.793C22.1879 25.1673 18.2614 25.2838 14.34 25.1421C13.1819 25.1975 12.0388 24.8615 11.095 24.188C10.407 23.4532 9.95191 22.5311 9.787 21.538C9.33123 19.7539 8.98492 17.9435 8.75 16.1171C8.46782 14.3591 8.45736 12.5682 8.719 10.8071C8.98871 9.03411 9.85718 7.40692 11.18 6.19605C13.286 4.40105 16.29 4.24505 19.056 4.17605L31.008 3.87605C32.958 3.82705 35.15 3.87605 36.508 5.26705C37.2369 6.14438 37.7393 7.18723 37.971 8.30405C39.071 12.1181 39.122 19.104 37.093 21.722C36.4497 22.3401 35.9096 23.0572 35.493 23.8461C34.947 25.4071 36.069 27.032 36 28.619" fill="white"/>
<path d="M35.9978 28.865C35.9625 28.865 35.9275 28.8572 35.8954 28.8424C35.8633 28.8276 35.8348 28.8059 35.8118 28.779C34.85 27.4757 33.6283 26.3861 32.2238 25.579C30.3688 24.692 28.2068 24.868 26.1148 25.037C22.1965 25.4124 18.2576 25.5297 14.3238 25.388C13.1103 25.4422 11.9141 25.0841 10.9298 24.372C10.2059 23.6045 9.7251 22.6401 9.54783 21.6C9.09001 19.8059 8.74204 17.9855 8.50583 16.149C8.22101 14.3664 8.21123 12.5506 8.47683 10.765C8.75637 8.93661 9.65386 7.25915 11.0198 6.01201C13.1198 4.22601 16.0128 4.01202 19.0478 3.93402L30.9998 3.63402C33.0998 3.58302 35.2718 3.65102 36.6838 5.09902C37.4426 6.00376 37.9658 7.08211 38.2068 8.23801C39.2748 11.938 39.4468 19.089 37.2878 21.874C37.1068 22.108 36.9028 22.327 36.7058 22.54C36.2861 22.9307 35.9512 23.4035 35.7218 23.929C35.5164 24.8049 35.5809 25.7225 35.9068 26.561C36.1225 27.2305 36.2358 27.9287 36.2428 28.632C36.2408 28.6811 36.2239 28.7283 36.1944 28.7676C36.165 28.8069 36.1243 28.8363 36.0778 28.852C36.0524 28.8608 36.0247 28.8652 35.9978 28.865ZM28.6328 24.413C29.9378 24.3676 31.2363 24.6154 32.4328 25.138C33.7041 25.829 34.8202 26.7735 35.7118 27.913C35.6423 27.4994 35.5491 27.09 35.4328 26.687C35.0771 25.7549 35.0157 24.7361 35.2568 23.768C35.5066 23.178 35.8768 22.6466 36.3438 22.208C36.5338 22.008 36.7298 21.792 36.8978 21.575C38.7738 19.156 38.8888 12.375 37.7338 8.37502C37.516 7.29661 37.0351 6.28874 36.3338 5.44102C35.0578 4.13402 33.0048 4.07201 31.0108 4.12301L19.0588 4.42301C16.1148 4.49701 13.3088 4.70201 11.3358 6.38501C10.0555 7.55952 9.21595 9.13701 8.95683 10.855C8.70109 12.5915 8.71222 14.3569 8.98983 16.09C9.22379 17.9066 9.56809 19.7073 10.0208 21.482C10.1759 22.4268 10.6058 23.305 11.2568 24.007C12.1626 24.6401 13.2531 24.9543 14.3568 24.9C18.2689 25.0404 22.1861 24.9235 26.0828 24.55C26.9048 24.483 27.7708 24.413 28.6398 24.413" fill="black"/>
<path d="M2.89988 26.933C3.72988 25.3697 4.63422 23.8493 5.61288 22.372C5.84624 21.9796 6.14175 21.6277 6.48788 21.33C6.94746 21.0142 7.46962 20.8011 8.01888 20.705C10.0319 20.3039 12.0775 20.089 14.1299 20.063L24.6849 19.607C26.1744 19.6801 27.6543 19.3306 28.9539 18.599C29.643 18.0744 30.2121 17.4085 30.6229 16.646C31.1533 15.7769 31.5383 14.8271 31.7629 13.834C31.9792 12.5379 31.9964 11.2163 31.8139 9.91501C31.5889 7.66901 31.1789 5.29901 29.6869 3.60501C27.9569 1.64001 25.1749 1.02701 22.5739 0.72901C17.9827 0.252365 13.3537 0.268121 8.76588 0.77601C6.46588 1.00701 3.97788 1.42701 2.43388 3.14101C1.49933 4.31433 0.907507 5.72327 0.723883 7.21201C0.324236 9.88797 0.173258 12.5952 0.272883 15.299C0.218148 16.1242 0.347959 16.9513 0.652883 17.72C1.05746 18.3634 1.51505 18.9718 2.02088 19.539C3.46988 21.571 3.08188 24.339 2.89988 26.939" fill="white"/>
<path d="M2.89894 27.177C2.8763 27.1771 2.85376 27.1741 2.83194 27.168C2.77815 27.1526 2.73131 27.1191 2.69927 27.0732C2.66723 27.0274 2.65193 26.9719 2.65594 26.916C2.67394 26.66 2.69394 26.403 2.71394 26.144C2.89294 23.829 3.07694 21.436 1.82194 19.675C1.66394 19.453 1.47894 19.238 1.29994 19.029C0.96021 18.6656 0.66911 18.2595 0.433941 17.821C0.114222 17.0207 -0.0224469 16.159 0.0339408 15.299C-0.0659992 12.5802 0.0856462 9.85796 0.486941 7.16704C0.68582 5.63552 1.29729 4.18687 2.25594 2.97604C3.81694 1.24304 6.29794 0.777043 8.74494 0.535043C13.3498 0.0212193 17.9965 0.00445607 22.6049 0.485043C25.0199 0.762043 28.0289 1.34704 29.8729 3.44204C31.4019 5.17904 31.8269 7.56704 32.0599 9.88904C32.2435 11.2155 32.2249 12.5621 32.0049 13.883C31.7767 14.9028 31.3817 15.8779 30.8359 16.769C30.4095 17.5633 29.8159 18.2555 29.0959 18.798C27.7575 19.5557 26.2324 19.9203 24.6959 19.85L14.1399 20.306C12.1027 20.3322 10.0722 20.5451 8.07394 20.942C7.55955 21.0319 7.07009 21.2299 6.63794 21.523C6.31261 21.8045 6.03502 22.1368 5.81594 22.507C4.84394 23.97 3.93494 25.498 3.11594 27.048C3.09505 27.0871 3.0639 27.1198 3.02585 27.1425C2.98779 27.1653 2.94327 27.1772 2.89894 27.177ZM16.2269 0.622043C13.8799 0.622043 11.4129 0.754043 8.79094 1.01604C6.44094 1.25204 4.06594 1.69204 2.61594 3.30204C1.70246 4.43625 1.13053 5.80694 0.966941 7.25404C0.571112 9.91528 0.421479 12.6073 0.519941 15.296C0.467085 16.0831 0.58688 16.8722 0.870941 17.608C1.08926 18.0075 1.35814 18.3773 1.67094 18.708C1.85694 18.925 2.04894 19.149 2.22094 19.388C3.50794 21.201 3.39994 23.535 3.22694 25.819C3.90794 24.598 4.64094 23.397 5.41194 22.236C5.65876 21.82 5.97305 21.448 6.34194 21.135C6.82894 20.7971 7.38329 20.5686 7.96694 20.465C9.99436 20.0605 12.0547 19.8436 14.1219 19.817L24.6779 19.361C26.1206 19.4289 27.5537 19.0952 28.8179 18.397C29.4803 17.8939 30.026 17.2537 30.4179 16.52C30.9354 15.6748 31.3101 14.7501 31.5269 13.783C31.7364 12.5101 31.7526 11.2128 31.5749 9.93504C31.3509 7.69404 30.9449 5.39504 29.5069 3.76204C27.7729 1.79504 24.8779 1.23504 22.5499 0.970043C20.4506 0.733653 18.3395 0.617464 16.2269 0.622043Z" fill="black"/>
<path d="M6.47291 13.5011C6.40819 13.5023 6.34566 13.4777 6.29905 13.4328C6.25245 13.3879 6.2256 13.3263 6.22441 13.2616C6.22321 13.1969 6.24777 13.1343 6.29269 13.0877C6.3376 13.0411 6.39919 13.0143 6.46391 13.0131L25.0369 12.2771C25.0691 12.2751 25.1014 12.2796 25.1318 12.2903C25.1622 12.3011 25.1902 12.318 25.2139 12.3398C25.2376 12.3617 25.2567 12.3881 25.2699 12.4176C25.2832 12.447 25.2903 12.4788 25.2909 12.5111C25.2933 12.5756 25.2701 12.6385 25.2262 12.686C25.1823 12.7334 25.1215 12.7615 25.0569 12.7641L6.48291 13.5021L6.47291 13.5011Z" fill="black"/>
<path d="M6.126 8.12304C6.06129 8.12437 5.9987 8.09993 5.95201 8.05511C5.90531 8.01029 5.87833 7.94876 5.877 7.88404C5.87568 7.81933 5.90011 7.75674 5.94493 7.71004C5.98976 7.66335 6.05129 7.63637 6.116 7.63504L25.036 6.85304C25.0689 6.85007 25.1021 6.85381 25.1335 6.86404C25.165 6.87427 25.194 6.89078 25.2188 6.91257C25.2437 6.93436 25.2639 6.96097 25.2781 6.99079C25.2924 7.02061 25.3004 7.05301 25.3018 7.08604C25.3031 7.11906 25.2978 7.15202 25.286 7.18291C25.2742 7.21379 25.2563 7.24197 25.2333 7.26572C25.2104 7.28947 25.1828 7.30831 25.1523 7.32109C25.1218 7.33386 25.0891 7.34031 25.056 7.34004L6.13601 8.12204H6.126" fill="black"/>
<path d="M11.5689 22.803C11.5528 22.8028 11.5372 22.7979 11.5239 22.789C11.5149 22.7831 11.5073 22.7754 11.5014 22.7665C11.4954 22.7576 11.4913 22.7476 11.4893 22.7371C11.4872 22.7266 11.4873 22.7158 11.4895 22.7053C11.4916 22.6948 11.4958 22.6849 11.5019 22.676L12.6919 20.891C12.7038 20.873 12.7224 20.8604 12.7436 20.8561C12.7648 20.8518 12.7868 20.8561 12.8049 20.868C12.8229 20.88 12.8354 20.8986 12.8398 20.9198C12.8441 20.941 12.8398 20.963 12.8279 20.981L11.6369 22.767C11.6293 22.7781 11.6192 22.7872 11.6073 22.7935C11.5955 22.7998 11.5823 22.803 11.5689 22.803Z" fill="black"/>
<path d="M13.023 23.717C13.0082 23.717 12.9937 23.7128 12.981 23.705C12.9719 23.6994 12.9639 23.6921 12.9575 23.6835C12.9512 23.6749 12.9467 23.665 12.9442 23.6546C12.9416 23.6442 12.9412 23.6334 12.9429 23.6228C12.9446 23.6122 12.9484 23.6021 12.954 23.593C13.578 22.571 14.254 21.56 14.954 20.593C14.9673 20.5755 14.987 20.564 15.0087 20.561C15.0305 20.558 15.0525 20.5637 15.07 20.577C15.0875 20.5902 15.0991 20.6099 15.1021 20.6317C15.1051 20.6534 15.0993 20.6755 15.086 20.693C14.386 21.661 13.716 22.667 13.094 23.686C13.0868 23.6979 13.0767 23.7077 13.0646 23.7145C13.0525 23.7213 13.0389 23.7249 13.025 23.725" fill="black"/>
<path d="M15.4689 23.9871C15.4568 23.9872 15.4448 23.9844 15.4339 23.9791C15.4145 23.9698 15.3997 23.9532 15.3925 23.933C15.3854 23.9127 15.3866 23.8905 15.3959 23.8711C15.9472 22.7318 16.5875 21.6377 17.3109 20.5991C17.317 20.5904 17.3248 20.5829 17.3337 20.5772C17.3427 20.5715 17.3527 20.5676 17.3632 20.5657C17.3737 20.5638 17.3845 20.5641 17.3949 20.5664C17.4053 20.5687 17.4151 20.573 17.4239 20.5791C17.4326 20.5852 17.4401 20.593 17.4458 20.602C17.4515 20.6109 17.4554 20.621 17.4573 20.6315C17.4591 20.6419 17.4589 20.6527 17.4566 20.6631C17.4543 20.6735 17.45 20.6834 17.4439 20.6921C16.7263 21.7222 16.091 22.8072 15.5439 23.9371C15.5372 23.9508 15.5268 23.9623 15.5139 23.9705C15.501 23.9786 15.4861 23.983 15.4709 23.9831" fill="black"/>
<path d="M17.8208 24.0731C17.8066 24.0731 17.7926 24.0695 17.7803 24.0625C17.7679 24.0555 17.7576 24.0453 17.7504 24.033C17.7432 24.0208 17.7394 24.0068 17.7393 23.9926C17.7392 23.9784 17.7428 23.9644 17.7498 23.9521L19.5568 20.7421C19.5674 20.7232 19.5851 20.7094 19.6059 20.7036C19.6267 20.6978 19.649 20.7004 19.6678 20.7111C19.6867 20.7217 19.7005 20.7393 19.7063 20.7601C19.7121 20.7809 19.7094 20.8032 19.6988 20.8221L17.8918 24.032C17.8848 24.0448 17.8746 24.0554 17.8621 24.0628C17.8496 24.0702 17.8353 24.0731 17.8208 24.0731Z" fill="black"/>
<path d="M20.33 24.1131C20.3179 24.113 20.3059 24.1103 20.295 24.1051C20.2756 24.0958 20.2607 24.0792 20.2536 24.0589C20.2465 24.0387 20.2477 24.0164 20.257 23.9971C20.819 22.8221 21.447 21.6631 22.124 20.5501C22.1351 20.5316 22.1531 20.5184 22.174 20.5132C22.1949 20.5081 22.217 20.5114 22.2355 20.5226C22.2539 20.5337 22.2672 20.5517 22.2723 20.5726C22.2775 20.5935 22.2741 20.6156 22.263 20.6341C21.589 21.7431 20.963 22.8971 20.404 24.0671C20.3974 24.0808 20.387 24.0925 20.3741 24.1006C20.3612 24.1087 20.3452 24.1131 20.33 24.1131Z" fill="black"/>
<path d="M22.9879 23.9941C22.9773 23.9942 22.9668 23.9921 22.9569 23.9881C22.9471 23.984 22.9381 23.9781 22.9306 23.9705C22.923 23.963 22.917 23.9541 22.9129 23.9442C22.9088 23.9344 22.9067 23.9238 22.9067 23.9131C22.9067 23.9025 22.9088 23.8919 22.9129 23.8821C23.3949 22.7181 23.9349 21.5631 24.5199 20.4481C24.53 20.429 24.5473 20.4147 24.5679 20.4083C24.5885 20.4019 24.6108 20.404 24.6299 20.4141C24.649 20.4242 24.6633 20.4414 24.6697 20.462C24.6761 20.4827 24.674 20.505 24.6639 20.5241C24.0819 21.6341 23.5439 22.7841 23.0639 23.9441C23.0577 23.9588 23.0472 23.9714 23.0339 23.9803C23.0206 23.9892 23.004 23.994 22.9879 23.9941Z" fill="black"/>
<path d="M25.571 23.6371C25.5614 23.637 25.552 23.6353 25.543 23.6321C25.5238 23.6246 25.5081 23.6101 25.4992 23.5916C25.4903 23.573 25.4888 23.5517 25.495 23.5321C25.89 22.4731 26.337 21.4191 26.825 20.3991C26.8296 20.3894 26.836 20.3808 26.844 20.3736C26.8519 20.3664 26.8612 20.3609 26.8713 20.3573C26.8813 20.3538 26.892 20.3522 26.9027 20.3528C26.9134 20.3533 26.9238 20.356 26.9335 20.3606C26.9431 20.3652 26.9518 20.3716 26.9589 20.3796C26.9661 20.3875 26.9716 20.3968 26.9752 20.4068C26.9788 20.4169 26.9803 20.4276 26.9798 20.4383C26.9792 20.4489 26.9766 20.4594 26.972 20.4691C26.486 21.4841 26.041 22.5331 25.648 23.5881C25.6423 23.6036 25.6319 23.617 25.6183 23.6265C25.6047 23.636 25.5886 23.6411 25.572 23.6411" fill="black"/>
<path d="M27.91 23.6351C27.8976 23.6351 27.8853 23.6324 27.8741 23.6271C27.8548 23.6174 27.8401 23.6006 27.8332 23.5802C27.8263 23.5598 27.8277 23.5375 27.837 23.5181L30.459 18.1781C30.4638 18.1685 30.4703 18.1599 30.4784 18.1529C30.4864 18.1458 30.4958 18.1404 30.5059 18.137C30.516 18.1336 30.5267 18.1322 30.5374 18.1329C30.548 18.1336 30.5585 18.1364 30.5681 18.1411C30.5776 18.1458 30.5862 18.1524 30.5932 18.1604C30.6003 18.1685 30.6057 18.1778 30.6091 18.1879C30.6126 18.198 30.614 18.2087 30.6133 18.2194C30.6126 18.2301 30.6098 18.2405 30.605 18.2501L27.9841 23.5901C27.9772 23.6036 27.9668 23.6149 27.9539 23.6229C27.941 23.6308 27.9252 23.6351 27.91 23.6351Z" fill="black"/>
<path d="M32.982 12.433C32.9717 12.433 32.9615 12.431 32.952 12.427C32.942 12.4231 32.933 12.4173 32.9253 12.41C32.9176 12.4026 32.9115 12.3938 32.9072 12.384C32.9029 12.3743 32.9006 12.3638 32.9004 12.3531C32.9002 12.3425 32.9021 12.3319 32.906 12.322C33.711 10.256 34.606 8.198 35.576 6.204C35.5854 6.18464 35.6021 6.16981 35.6224 6.16278C35.6428 6.15575 35.6651 6.15708 35.6845 6.1665C35.7038 6.17591 35.7187 6.19263 35.7257 6.21298C35.7327 6.23333 35.7314 6.25564 35.722 6.275C34.758 8.265 33.861 10.32 33.057 12.381C33.0511 12.3964 33.0406 12.4096 33.0271 12.4188C33.0135 12.4281 32.9984 12.4331 32.982 12.433Z" fill="black"/>
<path d="M32.188 7.39308C32.1738 7.39326 32.1599 7.38972 32.1475 7.38282C32.1351 7.37593 32.1248 7.36591 32.1175 7.35376C32.1102 7.34162 32.1062 7.32778 32.106 7.31363C32.1057 7.29947 32.1092 7.28549 32.116 7.27308L33.179 5.28308C33.1838 5.2734 33.1905 5.26477 33.1987 5.25772C33.2069 5.25067 33.2165 5.24533 33.2268 5.24203C33.2371 5.23873 33.2479 5.23752 33.2587 5.23848C33.2695 5.23944 33.2799 5.24256 33.2895 5.24763C33.2991 5.25271 33.3075 5.25965 33.3143 5.26805C33.3212 5.27644 33.3262 5.28612 33.3293 5.29651C33.3323 5.3069 33.3332 5.31779 33.3319 5.32853C33.3307 5.33928 33.3273 5.34967 33.322 5.35908L32.259 7.35008C32.252 7.36314 32.2417 7.37405 32.229 7.38163C32.2163 7.38921 32.2028 7.39317 32.188 7.39308Z" fill="black"/>
<path d="M30.2569 23.661C30.2466 23.661 30.2364 23.659 30.2269 23.655C30.2169 23.6512 30.2079 23.6454 30.2002 23.638C30.1925 23.6306 30.1864 23.6218 30.1821 23.6121C30.1778 23.6023 30.1755 23.5918 30.1753 23.5812C30.1751 23.5705 30.177 23.56 30.1809 23.55C32.1189 18.6203 34.3109 13.7942 36.7479 9.09104C36.7578 9.07195 36.7749 9.05759 36.7955 9.05112C36.8056 9.04791 36.8163 9.04674 36.827 9.04767C36.8376 9.0486 36.8479 9.05162 36.8574 9.05654C36.8668 9.06147 36.8752 9.06821 36.8821 9.07638C36.8889 9.08454 36.8941 9.09398 36.8973 9.10415C36.9005 9.11432 36.9017 9.12502 36.9007 9.13564C36.8998 9.14626 36.8968 9.15659 36.8919 9.16604C34.4574 13.8643 32.2678 18.6854 30.3319 23.61C30.3258 23.6252 30.3153 23.6382 30.3018 23.6473C30.2882 23.6564 30.2732 23.6612 30.2569 23.661Z" fill="black"/>
<path d="M32.4069 23.859C32.3931 23.8591 32.3794 23.8556 32.3673 23.8489C32.3552 23.8423 32.345 23.8326 32.3377 23.8209C32.3304 23.8092 32.3262 23.7957 32.3255 23.7819C32.3249 23.7681 32.3277 23.7544 32.3339 23.742L37.0929 14.011C37.1023 13.9916 37.119 13.9768 37.1394 13.9698C37.1597 13.9628 37.182 13.9641 37.2014 13.9735C37.2207 13.9829 37.2356 13.9996 37.2426 14.02C37.2496 14.0403 37.2483 14.0626 37.2389 14.082L32.4799 23.814C32.473 23.8275 32.4626 23.8389 32.4497 23.8468C32.4368 23.8547 32.422 23.859 32.4069 23.859Z" fill="black"/>
<path d="M35.245 21.883C35.2312 21.8831 35.2176 21.8796 35.2055 21.8729C35.1934 21.8663 35.1832 21.8566 35.1759 21.8449C35.1685 21.8331 35.1643 21.8197 35.1637 21.8059C35.163 21.7921 35.1659 21.7784 35.172 21.766L37.192 17.713C37.1967 17.7034 37.2033 17.6949 37.2113 17.6878C37.2194 17.6808 37.2287 17.6754 37.2388 17.6719C37.249 17.6685 37.2597 17.6671 37.2703 17.6678C37.281 17.6685 37.2914 17.6713 37.301 17.676C37.3106 17.6807 37.3192 17.6873 37.3262 17.6953C37.3333 17.7034 37.3387 17.7127 37.3421 17.7228C37.3455 17.733 37.3469 17.7437 37.3462 17.7543C37.3455 17.765 37.3427 17.7754 37.338 17.785L35.318 21.838C35.3113 21.8516 35.3009 21.863 35.288 21.8709C35.2751 21.8789 35.2602 21.8831 35.245 21.883Z" fill="black"/>
<g opacity="0.129">
<mask id="mask2_0_504" style="mask-type:luminance" maskUnits="userSpaceOnUse" x="9" y="5" width="25" height="17">
<path d="M33.4199 5.198H9.97388V21.774H33.4199V5.198Z" fill="white"/>
</mask>
<g mask="url(#mask2_0_504)">
<path d="M33.1358 8.49103C33.058 8.17199 32.9494 7.86121 32.8118 7.56303C32.8278 7.58503 32.8688 7.71303 32.8598 7.67103C32.7398 7.31503 32.6268 6.95503 32.4788 6.60903C32.5958 6.88803 32.3568 6.30903 32.2928 6.19703C32.1604 5.9227 31.9992 5.66324 31.8118 5.42303C31.7764 5.36391 31.7281 5.31357 31.6705 5.2758C31.6129 5.23803 31.5474 5.21381 31.4791 5.20495C31.4108 5.1961 31.3413 5.20284 31.276 5.22468C31.2106 5.24652 31.1511 5.28288 31.1018 5.33103C30.8398 5.60603 31.0178 5.88503 31.2018 6.13103C31.3182 6.2945 31.4055 6.47685 31.4598 6.67003C31.6118 7.17003 31.7138 7.52603 31.7858 7.80303C31.7614 7.82722 31.7403 7.85444 31.7228 7.88403C31.6173 8.45584 31.5435 9.03306 31.5018 9.61303C31.4878 9.69003 31.4878 9.70703 31.4908 9.69403C31.4018 10.3 31.2718 10.941 31.1678 11.706C31.0024 12.612 30.7516 13.5003 30.4188 14.359C30.0091 15.3307 29.3413 16.1717 28.4878 16.791C27.492 17.43 26.416 17.9344 25.2878 18.291C23.9765 18.664 22.6286 18.8933 21.2678 18.975C19.6148 19.138 17.9608 19.275 16.3108 19.475C15.1628 19.575 14.2388 19.602 13.3678 19.755C13.0228 19.809 12.6818 19.882 12.3408 19.955L12.3118 19.966L11.8248 19.985C11.7249 19.9831 11.6262 20.0062 11.5375 20.0521C11.4488 20.098 11.3729 20.1654 11.3168 20.248L10.9548 20.21C10.7622 20.157 10.5581 20.1629 10.3688 20.227C10.2322 20.2864 10.1201 20.3908 10.0512 20.5228C9.98229 20.6548 9.96071 20.8065 9.99008 20.9524C10.0194 21.0984 10.098 21.23 10.2126 21.3251C10.3272 21.4202 10.4709 21.4731 10.6198 21.475C12.8652 21.7348 15.1269 21.8257 17.3858 21.747C18.5458 21.706 19.6928 21.53 20.8448 21.404C22.9968 21.2344 25.1349 20.9203 27.2448 20.464C28.1801 20.3119 29.0759 19.9756 29.8803 19.4747C30.6847 18.9738 31.3817 18.3183 31.9308 17.546C33.3301 14.7462 33.7542 11.5593 33.1358 8.49103ZM30.8878 16.745C30.6996 17.1221 30.4366 17.4569 30.1148 17.729C30.0941 17.6518 30.0564 17.5801 30.0045 17.5192C29.9526 17.4583 29.8878 17.4098 29.8148 17.377C30.5811 16.6847 31.1913 15.8373 31.6048 14.891C31.5818 14.977 31.5588 15.062 31.5338 15.149C31.402 15.7097 31.1852 16.247 30.8908 16.742" fill="black"/>
</g>
</g>
</g>
</g>
</svg>
