<svg width="41" height="41" viewBox="0 0 41 41" fill="none" xmlns="http://www.w3.org/2000/svg">
<mask id="mask0_0_412" style="mask-type:luminance" maskUnits="userSpaceOnUse" x="0" y="0" width="41" height="41">
<path d="M40.674 0.819946H0.324951V40.1799H40.674V0.819946Z" fill="white"/>
</mask>
<g mask="url(#mask0_0_412)">
<path d="M0.614014 20.5009C0.680432 15.2926 2.81265 10.3239 6.5418 6.68743C10.2709 3.05092 15.2917 1.04434 20.5 1.10893C25.7083 1.04434 30.7291 3.05092 34.4582 6.68743C38.1874 10.3239 40.3196 15.2926 40.386 20.5009C40.3193 25.7091 38.187 30.6775 34.4579 34.3138C30.7288 37.9501 25.7082 39.9565 20.5 39.8919C15.2919 39.9565 10.2713 37.9501 6.54215 34.3138C2.81303 30.6775 0.680695 25.7091 0.614014 20.5009Z" fill="white"/>
<path d="M20.5 40.18C15.2168 40.239 10.1259 38.2003 6.34379 34.511C2.5617 30.8217 0.397172 25.783 0.324951 20.5C0.397172 15.217 2.5617 10.1783 6.34379 6.48898C10.1259 2.79968 15.2168 0.760961 20.5 0.819972C25.7829 0.761493 30.8734 2.80041 34.6552 6.48963C38.437 10.1788 40.6015 15.2172 40.674 20.5C40.6017 25.7828 38.4373 30.8213 34.6555 34.5106C30.8736 38.1999 25.7829 40.2387 20.5 40.18ZM20.5 1.39697C15.37 1.33741 10.4258 3.31468 6.75153 6.89519C3.07729 10.4757 0.972945 15.3672 0.899951 20.497C0.972945 25.6268 3.07729 30.5182 6.75153 34.0988C10.4258 37.6793 15.37 39.6565 20.5 39.597C25.6299 39.6565 30.5741 37.6793 34.2484 34.0988C37.9226 30.5182 40.027 25.6268 40.1 20.497C40.027 15.3672 37.9226 10.4757 34.2484 6.89519C30.5741 3.31468 25.6299 1.33741 20.5 1.39697Z" fill="black"/>
<path d="M3.08488 20.5C3.12134 16.0026 4.94249 11.7037 8.14788 8.54878C11.3533 5.39384 15.6804 3.6411 20.1779 3.67598C22.4054 3.65778 24.6147 4.07852 26.6795 4.91418C28.7444 5.74983 30.6245 6.98402 32.2124 8.54629C33.8003 10.1086 35.0649 11.9683 35.9341 14.0193C36.8032 16.0703 37.2598 18.2725 37.2779 20.5C37.2597 22.7274 36.803 24.9294 35.9338 26.9803C35.0646 29.0312 33.7999 30.8909 32.2121 32.453C30.6242 34.0152 28.7441 35.2493 26.6793 36.0849C24.6145 36.9205 22.4053 37.3412 20.1779 37.323C17.9504 37.3412 15.7411 36.9204 13.6762 36.0848C11.6113 35.2491 9.73125 34.0149 8.14335 32.4527C6.55546 30.8904 5.29083 29.0307 4.4217 26.9796C3.55256 24.9286 3.09593 22.7265 3.07788 20.499" fill="white"/>
<path d="M20.1829 37.612C15.6098 37.6429 11.2111 35.8587 7.9518 32.6507C4.69247 29.4428 2.83861 25.073 2.79688 20.5C2.86613 15.9346 4.72832 11.5797 7.9813 8.37567C11.2343 5.17166 15.617 3.37573 20.1829 3.37573C24.7488 3.37573 29.1315 5.17166 32.3845 8.37567C35.6374 11.5797 37.4996 15.9346 37.5689 20.5C37.5271 25.073 35.6733 29.4428 32.414 32.6507C29.1546 35.8587 24.756 37.6429 20.1829 37.612ZM20.1829 3.96501C15.7627 3.93384 11.5107 5.65718 8.3595 8.75698C5.20832 11.8568 3.41534 16.0799 3.37388 20.5C3.44195 24.9131 5.24284 29.1225 8.38774 32.2192C11.5326 35.316 15.7692 37.0517 20.1829 37.0517C24.5965 37.0517 28.8331 35.316 31.978 32.2192C35.1229 29.1225 36.9238 24.9131 36.9919 20.5C36.9501 16.08 35.1571 11.857 32.006 8.75728C28.8548 5.65753 24.603 3.9341 20.1829 3.96501Z" fill="black"/>
<path d="M20.183 20.7879C20.1282 20.7879 20.0746 20.7723 20.0283 20.7429C19.9821 20.7135 19.9452 20.6716 19.922 20.6219L14.28 8.60792C14.2524 8.53948 14.252 8.46308 14.279 8.39437C14.3059 8.32566 14.3581 8.26985 14.4248 8.23839C14.4916 8.20693 14.5679 8.2022 14.638 8.22517C14.7081 8.24814 14.7668 8.29707 14.802 8.36192L20.441 20.3769C20.4618 20.4209 20.4711 20.4693 20.468 20.5178C20.465 20.5663 20.4498 20.6133 20.4237 20.6543C20.3977 20.6953 20.3617 20.7291 20.3191 20.7525C20.2764 20.7758 20.2286 20.788 20.18 20.7879" fill="black"/>
<path d="M19.0969 20.869L26.7529 25.51L25.6179 27.495L31.1579 26.637L28.8829 21.827L27.7889 23.361L19.9549 19.208L19.0969 20.869Z" fill="white"/>
<path d="M25.617 27.784C25.5664 27.7841 25.5166 27.7709 25.4728 27.7456C25.4289 27.7204 25.3925 27.684 25.3671 27.6402C25.3418 27.5964 25.3284 27.5467 25.3284 27.4961C25.3284 27.4455 25.3417 27.3958 25.367 27.352L26.367 25.611L18.952 21.111C18.8894 21.0732 18.8435 21.013 18.8236 20.9426C18.8037 20.8722 18.8114 20.7969 18.845 20.732L19.705 19.071C19.7225 19.0371 19.7465 19.0071 19.7757 18.9826C19.8049 18.9582 19.8386 18.9397 19.875 18.9284C19.9114 18.917 19.9496 18.913 19.9876 18.9165C20.0255 18.9201 20.0623 18.9311 20.096 18.949L27.707 22.983L28.655 21.655C28.6838 21.6128 28.7234 21.5791 28.7696 21.5573C28.8158 21.5355 28.867 21.5264 28.9178 21.5308C28.9687 21.5353 29.0175 21.5532 29.0592 21.5828C29.1009 21.6123 29.1339 21.6524 29.155 21.699L31.427 26.508C31.4462 26.5486 31.4557 26.5931 31.4546 26.638C31.4536 26.6828 31.442 26.7269 31.421 26.7665C31.3999 26.8061 31.3698 26.8403 31.3332 26.8662C31.2966 26.8922 31.2544 26.9092 31.21 26.916L25.67 27.775C25.6553 27.776 25.6406 27.776 25.626 27.775M19.486 20.754L26.911 25.254C26.9753 25.293 27.0218 25.3557 27.0404 25.4286C27.0591 25.5015 27.0486 25.5788 27.011 25.644L26.173 27.109L30.739 26.401L28.839 22.386L28.03 23.519C27.9894 23.5759 27.9295 23.6162 27.8614 23.6322C27.7933 23.6482 27.7217 23.6389 27.66 23.606L20.079 19.605L19.486 20.754Z" fill="black"/>
<path d="M20.428 18.713C20.064 18.7535 19.7209 18.9037 19.4443 19.1438C19.1676 19.3838 18.9705 19.7023 18.879 20.057C18.7953 20.4164 18.8276 20.7932 18.9712 21.1332C19.1148 21.4732 19.3625 21.7589 19.6786 21.9495C19.9947 22.14 20.363 22.2256 20.7307 22.1938C21.0984 22.1621 21.4466 22.0147 21.7254 21.7728C22.0042 21.531 22.1992 21.207 22.2825 20.8474C22.3657 20.4879 22.333 20.1112 22.1889 19.7714C22.0448 19.4316 21.7968 19.1461 21.4805 18.956C21.1642 18.7658 20.7957 18.6808 20.428 18.713Z" fill="white"/>
<path d="M20.5499 22.504C20.4707 22.5042 20.3915 22.4992 20.3129 22.489C20.0345 22.4409 19.7685 22.3376 19.5306 22.185C19.2927 22.0325 19.0878 21.8339 18.928 21.6008C18.7681 21.3678 18.6566 21.1052 18.5999 20.8283C18.5432 20.5515 18.5425 20.2661 18.5979 19.989C18.7038 19.5764 18.9327 19.2057 19.2542 18.9262C19.5757 18.6466 19.9746 18.4715 20.3979 18.424C20.6784 18.405 20.9597 18.4453 21.2235 18.5423C21.4873 18.6393 21.7276 18.7909 21.9289 18.987C22.1439 19.1799 22.3158 19.416 22.4335 19.6798C22.5512 19.9436 22.612 20.2292 22.6119 20.518C22.5997 20.8007 22.5281 21.0777 22.4018 21.331C22.2755 21.5842 22.0974 21.8081 21.8789 21.988C21.5098 22.3121 21.0372 22.494 20.5459 22.501M20.4459 19.001C20.1449 19.0397 19.8622 19.1672 19.6338 19.3672C19.4055 19.5672 19.2419 19.8307 19.1639 20.124C19.0846 20.423 19.1041 20.7396 19.2195 21.0266C19.335 21.3136 19.5402 21.5555 19.8046 21.7162C20.0689 21.8769 20.3781 21.9477 20.6861 21.9181C20.994 21.8885 21.2841 21.7601 21.5129 21.552C21.6695 21.4246 21.7976 21.2658 21.8889 21.0858C21.9802 20.9058 22.0327 20.7086 22.0429 20.507C22.0404 20.299 21.9947 20.0938 21.9086 19.9044C21.8225 19.7151 21.698 19.5457 21.5429 19.407C21.4012 19.2663 21.2314 19.1571 21.0446 19.0865C20.8579 19.0158 20.6583 18.9853 20.4589 18.997" fill="black"/>
<path d="M4.68802 21.884C4.61267 21.8867 4.53925 21.8597 4.48354 21.8089C4.42784 21.7581 4.39428 21.6874 4.39009 21.6122C4.3859 21.5369 4.41141 21.4629 4.46113 21.4062C4.51086 21.3496 4.58083 21.3146 4.65602 21.309C5.48302 21.2154 6.3175 21.208 7.14602 21.287C7.18371 21.2906 7.22032 21.3016 7.25376 21.3193C7.2872 21.3371 7.31681 21.3613 7.34091 21.3905C7.365 21.4197 7.38311 21.4533 7.3942 21.4895C7.40529 21.5257 7.40913 21.5638 7.40552 21.6015C7.40191 21.6392 7.39091 21.6758 7.37315 21.7092C7.35539 21.7426 7.33122 21.7723 7.30202 21.7963C7.27281 21.8204 7.23915 21.8386 7.20295 21.8496C7.16674 21.8607 7.12871 21.8646 7.09102 21.861C6.30275 21.7861 5.50884 21.7931 4.72202 21.882H4.68902" fill="black"/>
<path d="M20.076 35.346C19.9996 35.3452 19.9265 35.3142 19.8729 35.2596C19.8193 35.2051 19.7895 35.1315 19.79 35.055L19.81 32.691C19.8106 32.6148 19.8413 32.5419 19.8955 32.4883C19.9496 32.4347 20.0228 32.4048 20.099 32.405C20.1755 32.4058 20.2486 32.4369 20.3022 32.4914C20.3558 32.546 20.3856 32.6196 20.385 32.696L20.365 35.06C20.3645 35.1362 20.3338 35.2091 20.2796 35.2627C20.2255 35.3163 20.1523 35.3463 20.076 35.346Z" fill="black"/>
<path d="M20.066 7.842C19.9896 7.84121 19.9165 7.81014 19.8629 7.75559C19.8093 7.70105 19.7795 7.62748 19.78 7.551L19.8 5.187C19.8008 5.11087 19.8316 5.03813 19.8857 4.98458C19.9398 4.93103 20.0129 4.901 20.089 4.901C20.1655 4.90179 20.2386 4.93286 20.2922 4.98741C20.3458 5.04195 20.3756 5.11552 20.375 5.192L20.355 7.556C20.3545 7.63221 20.3238 7.7051 20.2696 7.75871C20.2155 7.81232 20.1422 7.84227 20.066 7.842Z" fill="black"/>
<path d="M35.3659 20.366C35.3486 20.3674 35.3312 20.3674 35.3139 20.366C34.7482 20.2626 34.1714 20.2323 33.5979 20.276C33.5247 20.2766 33.4539 20.2494 33.3999 20.1999C33.346 20.1503 33.3128 20.0821 33.3072 20.009C33.3016 19.936 33.324 19.8635 33.3698 19.8063C33.4156 19.7491 33.4814 19.7115 33.5539 19.701C34.177 19.6544 34.8034 19.688 35.4179 19.801C35.4875 19.8153 35.5494 19.8547 35.5917 19.9118C35.6341 19.9688 35.6539 20.0395 35.6475 20.1102C35.6411 20.181 35.6088 20.2469 35.5569 20.2953C35.5049 20.3438 35.437 20.3714 35.3659 20.373" fill="black"/>
<g opacity="0.129">
<mask id="mask1_0_412" style="mask-type:luminance" maskUnits="userSpaceOnUse" x="21" y="20" width="3" height="3">
<path d="M23.378 20.704H21.53V22.54H23.378V20.704Z" fill="white"/>
</mask>
<g mask="url(#mask1_0_412)">
<path d="M22.7681 20.719C22.6718 20.7468 22.5864 20.8036 22.5234 20.8816C22.4604 20.9596 22.423 21.055 22.416 21.155L22.392 21.182C22.184 21.435 21.992 21.436 21.637 21.766C21.5709 21.8541 21.5371 21.9624 21.5414 22.0725C21.5456 22.1826 21.5876 22.288 21.6604 22.3708C21.7331 22.4536 21.8321 22.5088 21.9407 22.5273C22.0494 22.5457 22.1611 22.5262 22.257 22.472C22.664 22.261 23.0155 21.9571 23.2831 21.585C23.5171 21.17 23.302 20.606 22.766 20.72" fill="black"/>
</g>
</g>
<g opacity="0.129">
<mask id="mask2_0_412" style="mask-type:luminance" maskUnits="userSpaceOnUse" x="20" y="3" width="1" height="1">
<path d="M20.165 3.64795H20.147V3.65195H20.165V3.64795Z" fill="white"/>
</mask>
<g mask="url(#mask2_0_412)">
<path d="M20.1599 3.65191H20.1659C20.1479 3.65191 20.1389 3.64491 20.1599 3.65191Z" fill="black"/>
</g>
</g>
<g opacity="0.129">
<mask id="mask3_0_412" style="mask-type:luminance" maskUnits="userSpaceOnUse" x="3" y="3" width="26" height="30">
<path d="M28.8189 3.60596H3.29688V32.548H28.8189V3.60596Z" fill="white"/>
</mask>
<g mask="url(#mask3_0_412)">
<path d="M28.7088 5.84701C28.3221 5.65501 27.9295 5.47668 27.5308 5.31201C26.7257 4.98232 25.9004 4.70442 25.0598 4.48001C25.0023 4.46717 24.9515 4.43399 24.9165 4.38657C24.8816 4.33915 24.865 4.2807 24.8698 4.22201C24.5938 4.16001 24.3148 4.11001 24.0318 4.07301C22.9609 3.87033 21.8714 3.78283 20.7818 3.81201C20.7179 3.7508 20.6364 3.71126 20.5488 3.69901C20.5008 3.69101 20.2338 3.65501 20.1648 3.64701L20.2008 3.65501C20.0458 3.63201 19.8878 3.62601 19.7318 3.61501C19.4177 3.59396 19.1025 3.59697 18.7888 3.62401C18.0084 3.70959 17.2366 3.86113 16.4818 4.07701C15.2965 4.38138 14.1366 4.77758 13.0128 5.26201C11.8514 5.69889 10.7597 6.30219 9.77181 7.05301C8.88781 7.81079 8.09724 8.67118 7.41681 9.61601C7.32936 9.5674 7.22639 9.55484 7.12981 9.58101C6.84281 9.71701 6.95581 9.71401 6.72981 9.98101C6.49281 10.322 6.28281 10.681 6.07481 11.04C5.79044 11.4713 5.54514 11.9271 5.34181 12.402C5.27594 12.5128 5.24786 12.6419 5.26181 12.77C5.06603 13.0789 4.8913 13.4006 4.73881 13.733C3.68905 16.0626 3.19735 18.605 3.30281 21.158C3.38477 22.257 3.53742 23.3496 3.75981 24.429C4.0432 25.6002 4.44528 26.7394 4.95981 27.829C4.992 27.8856 5.03681 27.934 5.09075 27.9704C5.14469 28.0068 5.20631 28.0303 5.27081 28.039C5.54381 28.682 5.89881 29.577 6.29981 30.345C6.61548 31.0018 7.04168 31.5996 7.55981 32.112C7.69876 32.2626 7.85444 32.3968 8.02381 32.512C8.10715 32.5484 8.20096 32.553 8.28743 32.5248C8.37389 32.4966 8.44698 32.4376 8.49281 32.359C8.68181 32.034 8.31781 31.802 8.12481 31.592C8.00079 31.4644 7.88648 31.3277 7.78281 31.183C7.47644 30.7495 7.21033 30.2889 6.98781 29.807C6.70081 29.271 6.42081 28.73 6.17681 28.172C6.02681 27.785 5.74481 27.199 5.44381 26.582C5.1153 25.5527 4.86032 24.5014 4.68081 23.436C4.12998 20.647 4.37995 17.7589 5.40181 15.106C6.13333 13.6624 7.02674 12.3066 8.06481 11.065C8.93136 10.1405 9.85589 9.27204 10.8328 8.46501C11.6943 7.65862 12.6623 6.97424 13.7098 6.43101C14.5752 6.04033 15.4639 5.70335 16.3708 5.42201C18.1265 5.02868 19.9178 4.81558 21.7168 4.78601C22.5078 4.85801 23.1638 4.99201 24.1078 5.14401C25.5571 5.35294 26.9804 5.71427 28.3538 6.22201C28.4051 6.24181 28.4605 6.24893 28.5152 6.24277C28.5698 6.23661 28.6222 6.21735 28.6678 6.18663C28.7135 6.15591 28.751 6.11463 28.7773 6.0663C28.8036 6.01797 28.8178 5.96402 28.8188 5.90901C28.7818 5.89001 28.7458 5.87001 28.7098 5.85101" fill="black"/>
</g>
</g>
<g opacity="0.129">
<mask id="mask4_0_412" style="mask-type:luminance" maskUnits="userSpaceOnUse" x="11" y="13" width="30" height="27">
<path d="M40.4019 13.916H11.7219V39.848H40.4019V13.916Z" fill="white"/>
</mask>
<g mask="url(#mask4_0_412)">
<path d="M39.316 13.916C39.2435 13.9148 39.1721 13.9326 39.1087 13.9677C39.0453 14.0028 38.9923 14.054 38.955 14.116C38.9034 14.2117 38.8871 14.3225 38.909 14.429C38.909 14.505 38.93 14.699 38.938 14.757C38.958 14.842 39.038 15.621 39.094 16.082C39.741 19.6535 39.3068 23.3369 37.847 26.66C37.4088 27.9001 36.8526 29.0953 36.186 30.229C36.163 30.261 36.14 30.293 36.118 30.329C36.252 30.152 36.175 30.254 36.093 30.363C35.757 30.772 35.401 31.163 35.045 31.557C33.7363 32.9741 32.307 34.2747 30.773 35.444C30.0752 36.0103 29.3129 36.4919 28.502 36.879C28.256 36.979 28.556 36.856 28.221 36.988C27.396 37.247 26.593 37.572 25.763 37.81C24.6236 38.1287 23.4736 38.4067 22.313 38.644C21.4659 38.789 20.6092 38.8703 19.75 38.887C18.5537 38.9901 17.3491 38.9417 16.165 38.743C15.1383 38.5282 14.1265 38.2472 13.136 37.902C12.831 37.793 12.523 37.692 12.215 37.589C12.1643 37.573 12.111 37.5673 12.0581 37.5724C12.0052 37.5774 11.9539 37.5931 11.9072 37.6185C11.8605 37.6438 11.8194 37.6783 11.7864 37.7199C11.7534 37.7615 11.729 37.8093 11.7149 37.8605C11.7008 37.9117 11.6971 37.9653 11.7042 38.0179C11.7112 38.0706 11.7288 38.1213 11.7559 38.167C11.7829 38.2127 11.819 38.2524 11.8618 38.2839C11.9046 38.3153 11.9533 38.3378 12.005 38.35C13.399 38.874 14.8278 39.3004 16.281 39.626C16.947 39.71 17.615 39.802 18.281 39.844C19.013 39.857 19.744 39.804 20.474 39.765C21.622 39.7702 22.7661 39.6301 23.879 39.348C24.8174 39.1591 25.7448 38.9191 26.657 38.629C27.31 38.377 27.997 38.229 28.662 38.022C29.1368 37.8526 29.5973 37.6453 30.039 37.402C31.6059 36.4254 33.0575 35.2748 34.366 33.972C35.223 33.242 36.0085 32.432 36.712 31.553C37.4428 30.5118 38.0191 29.3703 38.423 28.164C39.0077 26.9967 39.4882 25.7799 39.859 24.528C40.3975 22.2289 40.5355 19.8541 40.267 17.508C39.8464 16.3397 39.5259 15.1377 39.309 13.915" fill="black"/>
</g>
</g>
</g>
</svg>
